<?xml version="1.0" encoding="UTF-8" standalone="no"?>
<svg
   xmlns:dc="http://purl.org/dc/elements/1.1/"
   xmlns:cc="http://creativecommons.org/ns#"
   xmlns:rdf="http://www.w3.org/1999/02/22-rdf-syntax-ns#"
   xmlns:svg="http://www.w3.org/2000/svg"
   xmlns="http://www.w3.org/2000/svg"
   id="svg8"
   version="1.1"
   viewBox="0 0 317.49999 166.6875"
   height="630"
   width="1200">
  <defs
     id="defs2" />
  <metadata
     id="metadata5">
    <rdf:RDF>
      <cc:Work
         rdf:about="">
        <dc:format>image/svg+xml</dc:format>
        <dc:type
           rdf:resource="http://purl.org/dc/dcmitype/StillImage" />
        <dc:title></dc:title>
      </cc:Work>
    </rdf:RDF>
  </metadata>
  <g
     id="layer2">
    <g
       style="opacity:0.25"
       transform="matrix(0.26458333,0,0,0.26458333,127.96687,-19.711325)"
       id="g1732">
      <path
         style="fill:#e6e6e6"
         d="m 501.18877,80.56067 3.46953,-5.362 a 80.3872,80.3872 0 0 0 -3.55952,-8.33251 l -2.24352,1.81205 1.77642,-2.74534 c -1.69294,-3.3325 -3.02505,-5.43215 -3.02505,-5.43215 0,0 -6.95827,10.96511 -9.283,22.57466 l 4.45222,6.88072 -4.9288,-3.981 a 32.52249,32.52249 0 0 0 -0.27041,4.0782 c 0,13.74959 4.49056,24.89583 10.03,24.89583 5.53944,0 10.03,-11.14624 10.03,-24.89583 A 42.818,42.818 0 0 0 505.3421,77.20607 Z"
         transform="translate(-158.82681,-60.50072)"
         id="path1382" />
      <path
         style="fill:#e6e6e6"
         d="m 525.74665,92.48079 6.24485,-1.33818 a 80.386,80.386 0 0 0 3.375,-8.40894 l -2.86772,-0.30508 3.19738,-0.68514 c 1.15933,-3.55352 1.70207,-5.98014 1.70207,-5.98014 0,0 -12.67374,2.83326 -22.52676,9.39864 l -1.71721,8.01359 -0.67022,-6.30016 a 32.52414,32.52414 0 0 0 -3.07493,2.69252 c -9.72242,9.72242 -14.4287,20.77932 -10.51174,24.69627 3.91696,3.91695 14.97385,-0.78932 24.69627,-10.51174 a 42.81769,42.81769 0 0 0 7.46188,-10.70686 z"
         transform="translate(-158.82681,-60.50072)"
         id="path1384" />
      <path
         style="fill:#e6e6e6"
         d="m 528.02764,145.68472 c -14.48118,0.92631 -30.25994,-0.0539 -47.04589,0 v -38.43185 c 14.79122,2.30262 30.56472,2.06615 47.04589,0 z"
         transform="translate(-158.82681,-60.50072)"
         id="path1386" />
      <path
         style="fill:#e6e6e6"
         d="m 631.62843,175.65222 2.26263,-3.49679 a 52.42392,52.42392 0 0 0 -2.32132,-5.434 l -1.46308,1.18172 1.15847,-1.79036 c -1.104,-2.17326 -1.97276,-3.54253 -1.97276,-3.54253 a 50.2414,50.2414 0 0 0 -6.05381,14.72187 l 2.90347,4.4872 -3.21427,-2.59615 a 21.20987,21.20987 0 0 0 -0.17635,2.65956 c 0,8.96667 2.92849,16.2356 6.541,16.2356 3.61251,0 6.541,-7.26893 6.541,-16.2356 a 27.92338,27.92338 0 0 0 -1.49636,-8.37821 z"
         transform="translate(-158.82681,-60.50072)"
         id="path1388" />
      <path
         style="fill:#e6e6e6"
         d="m 647.64364,183.42582 4.07252,-0.87269 a 52.42092,52.42092 0 0 0 2.201,-5.48381 l -1.87016,-0.199 2.08514,-0.44681 c 0.756,-2.31739 1.11,-3.89989 1.11,-3.89989 a 50.241,50.241 0 0 0 -14.69062,6.12924 l -1.11987,5.226 -0.43707,-4.10859 a 21.20826,21.20826 0 0 0 -2.00529,1.7559 c -6.3404,6.34039 -9.40955,13.55105 -6.85515,16.10546 2.5544,2.55441 9.76507,-0.51475 16.10546,-6.85515 a 27.92314,27.92314 0 0 0 4.8662,-6.98238 z"
         transform="translate(-158.82681,-60.50072)"
         id="path1390" />
      <path
         style="fill:#e6e6e6"
         d="m 649.13117,218.12229 c -9.44378,0.60408 -19.73376,-0.0351 -30.68057,0 v -25.063 a 110.58424,110.58424 0 0 0 30.68057,0 z"
         transform="translate(-158.82681,-60.50072)"
         id="path1392" />
      <path
         style="fill:#e6e6e6"
         d="m 643.29962,292.39872 c -8.33889,0.53341 -17.425,-0.031 -27.091,0 V 270.268 a 97.6466,97.6466 0 0 0 27.091,0 z"
         transform="translate(-158.82681,-60.50072)"
         id="path1394" />
      <rect
         style="fill:#e6e6e6"
         x="167.50835"
         y="82.481308"
         width="364.54703"
         height="10.18288"
         id="rect1396" />
      <rect
         style="fill:#e6e6e6"
         x="167.50835"
         y="154.77974"
         width="364.54703"
         height="10.18288"
         id="rect1398" />
      <rect
         style="fill:#e6e6e6"
         x="167.50835"
         y="227.07819"
         width="364.54703"
         height="10.18288"
         id="rect1400" />
      <circle
         style="fill:#e6e6e6"
         cx="470.9581"
         cy="197.54784"
         r="20.365761"
         id="circle1402" />
      <circle
         style="fill:#ffffff"
         cx="470.9581"
         cy="197.54784"
         r="16.292601"
         id="circle1404" />
      <circle
         style="fill:#e6e6e6"
         cx="470.9581"
         cy="197.54784"
         r="4.0731502"
         id="circle1406" />
      <rect
         style="fill:#e6e6e6"
         x="634.87634"
         y="249.90225"
         width="2.0365801"
         height="16.292601"
         transform="rotate(90,586.7316,148.38479)"
         id="rect1408" />
      <rect
         style="fill:#e6e6e6"
         x="628.7666"
         y="243.79253"
         width="2.0365801"
         height="16.292601"
         transform="rotate(180,550.37151,221.68847)"
         id="rect1410" />
      <rect
         style="fill:#e6e6e6"
         x="339.72543"
         y="105.10421"
         width="13.47506"
         height="53.338779"
         id="rect1412" />
      <rect
         style="fill:#cccccc"
         x="339.72543"
         y="113.52612"
         width="13.47506"
         height="6.1760702"
         id="rect1414" />
      <rect
         style="fill:#cccccc"
         x="339.72543"
         y="140.47624"
         width="13.47506"
         height="6.1760702"
         id="rect1416" />
      <rect
         style="fill:#e6e6e6"
         x="318.95139"
         y="105.10421"
         width="13.47506"
         height="53.338779"
         id="rect1418" />
      <rect
         style="fill:#cccccc"
         x="318.95139"
         y="113.52612"
         width="13.47506"
         height="6.1760702"
         id="rect1420" />
      <rect
         style="fill:#cccccc"
         x="318.95139"
         y="140.47624"
         width="13.47506"
         height="6.1760702"
         id="rect1422" />
      <rect
         style="fill:#e6e6e6"
         x="522.69507"
         y="165.60493"
         width="13.47506"
         height="53.338779"
         transform="rotate(-26.3396,320.73972,501.40931)"
         id="rect1424" />
      <rect
         style="fill:#cccccc"
         x="515.96899"
         y="175.60069"
         width="13.47506"
         height="6.1760702"
         transform="rotate(-26.3396,314.01361,487.8237)"
         id="rect1426" />
      <rect
         style="fill:#cccccc"
         x="527.92651"
         y="199.75285"
         width="13.47506"
         height="6.1760702"
         transform="rotate(-26.3396,325.97114,511.97587)"
         id="rect1428" />
      <rect
         style="fill:#e6e6e6"
         x="219.56747"
         y="177.40263"
         width="13.47506"
         height="53.338779"
         id="rect1430" />
      <rect
         style="fill:#cccccc"
         x="219.56747"
         y="185.82455"
         width="13.47506"
         height="6.1760702"
         id="rect1432" />
      <rect
         style="fill:#cccccc"
         x="219.56747"
         y="212.77467"
         width="13.47506"
         height="6.1760702"
         id="rect1434" />
      <rect
         style="fill:#e6e6e6"
         x="198.79343"
         y="177.40263"
         width="13.47506"
         height="53.338779"
         id="rect1436" />
      <rect
         style="fill:#cccccc"
         x="198.79343"
         y="185.82455"
         width="13.47506"
         height="6.1760702"
         id="rect1438" />
      <rect
         style="fill:#cccccc"
         x="198.79343"
         y="212.77467"
         width="13.47506"
         height="6.1760702"
         id="rect1440" />
      <rect
         style="fill:#e6e6e6"
         x="402.53711"
         y="237.90337"
         width="13.47506"
         height="53.338779"
         transform="rotate(-26.3396,200.58175,573.70775)"
         id="rect1442" />
      <rect
         style="fill:#cccccc"
         x="395.811"
         y="247.89912"
         width="13.47506"
         height="6.1760702"
         transform="rotate(-26.3396,193.85566,560.12216)"
         id="rect1444" />
      <rect
         style="fill:#cccccc"
         x="407.76852"
         y="272.05127"
         width="13.47506"
         height="6.1760702"
         transform="rotate(-26.3396,205.81318,584.27432)"
         id="rect1446" />
      <rect
         style="fill:#e6e6e6"
         x="345.83517"
         y="177.40263"
         width="13.47506"
         height="53.338779"
         id="rect1448" />
      <rect
         style="fill:#cccccc"
         x="345.83517"
         y="185.82455"
         width="13.47506"
         height="6.1760702"
         id="rect1450" />
      <rect
         style="fill:#cccccc"
         x="345.83517"
         y="212.77467"
         width="13.47506"
         height="6.1760702"
         id="rect1452" />
      <rect
         style="fill:#e6e6e6"
         x="325.06113"
         y="177.40263"
         width="13.47506"
         height="53.338779"
         id="rect1454" />
      <rect
         style="fill:#cccccc"
         x="325.06113"
         y="185.82455"
         width="13.47506"
         height="6.1760702"
         id="rect1456" />
      <rect
         style="fill:#cccccc"
         x="325.06113"
         y="212.77467"
         width="13.47506"
         height="6.1760702"
         id="rect1458" />
      <rect
         style="fill:#e6e6e6"
         x="528.80481"
         y="237.90337"
         width="13.47506"
         height="53.338779"
         transform="rotate(-26.3396,326.84946,573.70774)"
         id="rect1460" />
      <rect
         style="fill:#cccccc"
         x="522.07867"
         y="247.89912"
         width="13.47506"
         height="6.1760702"
         transform="rotate(-26.3396,320.12335,560.12214)"
         id="rect1462" />
      <rect
         style="fill:#cccccc"
         x="534.03619"
         y="272.05127"
         width="13.47506"
         height="6.1760702"
         transform="rotate(-26.3396,332.08088,584.27431)"
         id="rect1464" />
      <rect
         style="fill:#e6e6e6"
         x="449.98737"
         y="32.645672"
         width="53.555939"
         height="53.555939"
         id="rect1466" />
      <rect
         style="fill:#cccccc"
         x="460.69855"
         y="43.356861"
         width="32.133572"
         height="32.133572"
         id="rect1468" />
      <polygon
         style="fill:#e6e6e6"
         points="470,54.143 476.814,65.944 483.627,77.745 470,77.745 456.373,77.745 463.187,65.944 "
         id="polygon1470" />
      <polygon
         style="fill:#e6e6e6"
         points="481.839,56.398 488.653,68.199 495.466,80 481.839,80 468.212,80 475.026,68.199 "
         id="polygon1472" />
      <circle
         style="fill:#e6e6e6"
         cx="486.63092"
         cy="48.994331"
         r="3.9462299"
         id="circle1474" />
      <rect
         style="fill:#e6e6e6"
         x="179.12282"
         y="32.645672"
         width="53.555939"
         height="53.555939"
         id="rect1476" />
      <rect
         style="fill:#cccccc"
         x="189.83401"
         y="43.356861"
         width="32.133572"
         height="32.133572"
         id="rect1478" />
      <polygon
         style="fill:#e6e6e6"
         points="199.136,54.143 205.949,65.944 212.763,77.745 199.136,77.745 185.509,77.745 192.322,65.944 "
         id="polygon1480" />
      <polygon
         style="fill:#e6e6e6"
         points="210.975,56.398 217.788,68.199 224.601,80 210.975,80 197.348,80 204.161,68.199 "
         id="polygon1482" />
      <circle
         style="fill:#e6e6e6"
         cx="215.76636"
         cy="48.994331"
         r="3.9462299"
         id="circle1484" />
      <path
         style="fill:#dd1c1a"
         d="m 230.32422,458.34544 3.46953,-5.362 a 80.3871,80.3871 0 0 0 -3.55953,-8.33251 l -2.24351,1.812 1.77642,-2.74534 c -1.69294,-3.3325 -3.02505,-5.43215 -3.02505,-5.43215 0,0 -6.95827,10.96511 -9.283,22.57466 l 4.45222,6.88072 -4.92881,-3.981 a 32.52438,32.52438 0 0 0 -0.27041,4.0782 c 0,13.74959 4.49057,24.89583 10.03,24.89583 5.53943,0 10.03,-11.14624 10.03,-24.89583 a 42.818,42.818 0 0 0 -2.29454,-12.84723 z"
         transform="translate(-158.82681,-60.50072)"
         id="path1486" />
      <path
         style="fill:#dd1c1a"
         d="m 254.8821,470.26556 6.24485,-1.33818 a 80.386,80.386 0 0 0 3.375,-8.40894 l -2.86772,-0.30508 3.19737,-0.68514 c 1.15934,-3.55352 1.70208,-5.98014 1.70208,-5.98014 0,0 -12.67374,2.83326 -22.52676,9.39864 l -1.71721,8.01359 -0.67022,-6.30016 a 32.52414,32.52414 0 0 0 -3.07493,2.69252 c -9.72243,9.72242 -14.4287,20.77932 -10.51175,24.69627 3.91695,3.91695 14.97385,-0.78932 24.69628,-10.51174 a 42.818,42.818 0 0 0 7.46188,-10.70686 z"
         transform="translate(-158.82681,-60.50072)"
         id="path1488" />
      <path
         style="fill:#3f3d56"
         d="m 257.16309,523.46949 c -14.48118,0.92631 -30.25994,-0.0539 -47.04589,0 v -38.43185 c 14.79122,2.30262 30.56472,2.06615 47.04589,0 z"
         transform="translate(-158.82681,-60.50072)"
         id="path1490" />
      <rect
         style="fill:#e6e6e6"
         x="500.99759"
         y="475.03125"
         width="195.51126"
         height="253.55367"
         id="rect1492" />
      <rect
         style="fill:#e6e6e6"
         x="92.664192"
         y="488.26901"
         width="10.18288"
         height="240.31592"
         id="rect1494" />
      <rect
         style="fill:#e6e6e6"
         x="0"
         y="457.72037"
         width="696.50885"
         height="20.365761"
         id="rect1496" />
      <rect
         style="fill:#e6e6e6"
         x="87.572746"
         y="478.08612"
         width="20.365761"
         height="20.365761"
         id="rect1498" />
      <polygon
         style="fill:#3f3d56"
         points="687.344,536.638 687.344,489.796 614.155,489.796 613.009,494.379 584.497,494.379 582.779,489.796 510.162,489.796 510.162,536.638 "
         id="polygon1500" />
      <polygon
         style="fill:#3f3d56"
         points="687.344,595.698 687.344,548.857 614.155,548.857 613.009,553.439 584.497,553.439 582.779,548.857 510.162,548.857 510.162,595.698 "
         id="polygon1502" />
      <polygon
         style="fill:#3f3d56"
         points="687.344,654.759 687.344,607.918 614.155,607.918 613.009,612.5 584.497,612.5 582.779,607.918 510.162,607.918 510.162,654.759 "
         id="polygon1504" />
      <polygon
         style="fill:#3f3d56"
         points="687.344,713.82 687.344,666.979 614.155,666.979 613.009,671.561 584.497,671.561 582.779,666.979 510.162,666.979 510.162,713.82 "
         id="polygon1506" />
      <polygon
         style="fill:#e6e6e6"
         points="319.742,428.19 375.748,428.19 377.785,454.665 317.706,454.665 "
         id="polygon1508" />
      <rect
         style="fill:#e6e6e6"
         x="314.65094"
         y="451.61063"
         width="67.206993"
         height="6.1097298"
         id="rect1510" />
      <path
         style="fill:#3f3d56"
         d="m 621.63862,318.12753 h -229.6239 a 6.10973,6.10973 0 0 0 -6.10973,6.10973 V 464.25183 H 627.74834 V 324.23726 a 6.10973,6.10973 0 0 0 -6.10972,-6.10973 z"
         transform="translate(-158.82681,-60.50072)"
         id="path1512" />
      <path
         style="fill:#e6e6e6"
         d="m 385.905,464.25183 v 22.91147 a 6.10973,6.10973 0 0 0 6.10973,6.10973 h 229.6239 a 6.10973,6.10973 0 0 0 6.10972,-6.10973 v -22.91147 z"
         transform="translate(-158.82681,-60.50072)"
         id="path1514" />
      <rect
         style="fill:#ffffff"
         x="239.29762"
         y="270.35541"
         width="217.91359"
         height="122.19453"
         id="rect1516" />
      <circle
         style="fill:#3f3d56"
         cx="348.25443"
         cy="418.00714"
         r="6.1097298"
         id="circle1518" />
      <path
         style="fill:#3f3d56"
         d="m 1023.8623,787.5582 c -22.2542,1.42352 -46.5024,-0.0828 -72.29844,0 v -59.06069 c 22.73061,3.53859 46.97076,3.17519 72.29844,0 z"
         transform="translate(-158.82681,-60.50072)"
         id="path1520" />
      <polygon
         style="fill:#3f3d56"
         points="827.359,553.949 829.395,553.949 831.432,673.3 825.322,673.3 "
         id="polygon1522" />
      <polygon
         style="fill:#3f3d56"
         points="854.853,554.755 856.889,554.755 858.926,674.107 852.816,674.107 "
         id="polygon1524" />
      <polygon
         style="fill:#3f3d56"
         points="802.92,554.755 804.956,554.755 806.993,674.107 800.883,674.107 "
         id="polygon1526" />
      <path
         style="fill:#e6e6e6"
         d="m 995.35023,538.07769 9.86277,-15.24249 a 228.51376,228.51376 0 0 0 -10.11858,-23.68669 l -6.3776,5.1511 5.0498,-7.80416 c -4.81251,-9.47323 -8.59926,-15.44187 -8.59926,-15.44187 0,0 -19.78017,31.17033 -26.3886,64.17264 l 12.65624,19.55971 -14.011,-11.31664 a 92.45186,92.45186 0 0 0 -0.76869,11.593 c 0,39.08574 12.76527,70.771 28.51206,70.771 15.74683,0 28.51203,-31.68526 28.51203,-70.771 0,-12.117 -2.7413,-24.794 -6.5227,-36.52063 z"
         transform="translate(-158.82681,-60.50072)"
         id="path1528" />
      <path
         style="fill:#dd1c1a"
         d="m 1022.844,540.11427 9.8628,-15.2425 a 228.5147,228.5147 0 0 0 -10.1186,-23.68669 l -6.3776,5.15111 5.0498,-7.80416 c -4.8125,-9.47323 -8.5993,-15.44188 -8.5993,-15.44188 0,0 -19.78014,31.17034 -26.38857,64.17264 l 12.65626,19.55972 -14.011,-11.31664 a 92.45186,92.45186 0 0 0 -0.76869,11.593 c 0,39.08574 12.76527,70.771 28.5121,70.771 15.7468,0 28.512,-31.68526 28.512,-70.771 0,-12.117 -2.7412,-24.794 -6.5226,-36.52064 z"
         transform="translate(-158.82681,-60.50072)"
         id="path1530" />
      <path
         style="fill:#dd1c1a"
         d="m 970.91133,540.11427 9.8628,-15.2425 a 228.51678,228.51678 0 0 0 -10.11862,-23.68669 l -6.3776,5.15111 5.0498,-7.80416 c -4.8125,-9.47323 -8.59926,-15.44188 -8.59926,-15.44188 0,0 -19.78017,31.17034 -26.3886,64.17264 l 12.65626,19.55972 -14.011,-11.31664 a 92.45186,92.45186 0 0 0 -0.76869,11.593 c 0,39.08574 12.76527,70.771 28.51206,70.771 15.74679,0 28.51206,-31.68526 28.51206,-70.771 0,-12.117 -2.74125,-24.794 -6.52266,-36.52064 z"
         transform="translate(-158.82681,-60.50072)"
         id="path1532" />
      <rect
         style="fill:#3f3d56"
         x="309.96396"
         y="304.84784"
         width="58.756161"
         height="3.3728299"
         id="rect1534" />
      <rect
         style="fill:#dd1c1a"
         x="309.96396"
         y="317.15097"
         width="90.7323"
         height="3.3728299"
         id="rect1536" />
      <rect
         style="fill:#dd1c1a"
         x="309.96396"
         y="328.74234"
         width="73.944817"
         height="3.3728299"
         id="rect1538" />
      <rect
         style="fill:#3f3d56"
         x="309.96396"
         y="340.28989"
         width="43.167789"
         height="3.3728299"
         id="rect1540" />
      <rect
         style="fill:#3f3d56"
         x="309.96396"
         y="351.83743"
         width="65.15139"
         height="3.3728299"
         id="rect1542" />
      <rect
         style="fill:#3f3d56"
         x="283.18393"
         y="303.64874"
         width="7.1946301"
         height="7.1946301"
         id="rect1544" />
      <rect
         style="fill:#dd1c1a"
         x="283.18393"
         y="315.24008"
         width="7.1946301"
         height="7.1946301"
         id="rect1546" />
      <rect
         style="fill:#dd1c1a"
         x="283.18393"
         y="326.83142"
         width="7.1946301"
         height="7.1946301"
         id="rect1548" />
      <rect
         style="fill:#3f3d56"
         x="283.18393"
         y="338.42279"
         width="7.1946301"
         height="7.1946301"
         id="rect1550" />
      <rect
         style="fill:#3f3d56"
         x="283.18393"
         y="350.01413"
         width="7.1946301"
         height="7.1946301"
         id="rect1552" />
      <path
         style="fill:#dd1c1a"
         d="M 605.94216,358.96335 H 575.109 a 107.84044,107.84044 0 0 1 0,-36.76267 h 30.8332 a 66.14839,66.14839 0 0 0 -4e-5,36.76267 z"
         transform="translate(-158.82681,-60.50072)"
         id="path1554" />
      <path
         style="fill:#2f2e41"
         d="m 381.59071,432.64519 -12.68484,-3.092 A 32.65651,32.65651 0 0 1 336.8552,390.4291 v 0 a 42.68467,42.68467 0 0 1 42.631,-42.73825 h 8e-5 a 42.68468,42.68468 0 0 1 42.73825,42.631 v 6e-5 c 7.19221,25.02823 -15.33345,48.49047 -40.63382,42.32328 z"
         transform="translate(-158.82681,-60.50072)"
         id="path1556" />
      <circle
         style="fill:#ffb8b8"
         cx="236.61974"
         cy="345.24335"
         r="31.363689"
         id="circle1558" />
      <path
         style="fill:#ffb8b8"
         d="m 374.992,422.10773 c 0,0 -9.54547,32.72733 -15,35.4546 -5.45453,2.72727 43.63644,6.8182 43.63644,6.8182 0,0 -1.36364,-31.36369 1.36364,-34.091 2.72728,-2.72731 -30.00008,-8.1818 -30.00008,-8.1818 z"
         transform="translate(-158.82681,-60.50072)"
         id="path1560" />
      <path
         style="fill:#2f2e41"
         d="m 424.083,623.92626 c 0,0 61.36374,-5.45456 69.54557,15 8.18183,20.45456 -5.45457,141.81845 -5.45457,141.81845 h -25.90915 v -99.54563 c 0,0 -110.4725,-31.40179 -110.4725,-42.31089 0,-10.9091 72.29065,-14.96193 72.29065,-14.96193 z"
         transform="translate(-158.82681,-60.50072)"
         id="path1562" />
      <path
         style="fill:#2f2e41"
         d="m 484.08307,775.29015 13.63639,5.45456 c 0,0 16.36366,-1.36364 9.54547,10.90911 A 27.00366,27.00366 0 0 1 488.174,805.29021 c 0,0 -25.90914,9.54547 -27.27278,0 -1.36364,-9.54547 6.8182,-28.63642 6.8182,-28.63642 z"
         transform="translate(-158.82681,-60.50072)"
         id="path1564" />
      <path
         style="fill:#2f2e41"
         d="m 389.992,623.92626 c 0,0 61.36374,-5.45456 69.54557,15 8.18183,20.45456 -5.45457,141.81845 -5.45457,141.81845 h -25.90912 v -99.54563 c 0,0 -78.4181,-18.164 -78.4181,-29.07315 0,-5.12492 -5.34348,-31.171 4.07315,-36.65836 10.628,-6.19325 36.16307,8.45869 36.16307,8.45869 z"
         transform="translate(-158.82681,-60.50072)"
         id="path1566" />
      <path
         style="fill:#2f2e41"
         d="m 449.9921,775.29015 13.63639,5.45456 c 0,0 16.36367,-1.36364 9.54547,10.90911 A 27.00366,27.00366 0 0 1 454.083,805.29021 c 0,0 -25.90914,9.54547 -27.27277,0 -1.36363,-9.54547 6.81819,-28.63642 6.81819,-28.63642 z"
         transform="translate(-158.82681,-60.50072)"
         id="path1568" />
      <path
         style="fill:#575a89"
         d="m 361.35559,453.47142 40.98018,4.45436 a 30.18224,30.18224 0 0 1 26.26893,23.76669 l 15.93285,75.41553 c 0,0 5.45455,75.00013 -5.45456,79.091 -10.90911,4.09087 -25.90913,-16.36366 -46.36371,-13.63638 -20.45458,2.72728 -47.04554,8.86365 -47.04554,8.86365 0,0 -4.22274,-134.24727 -4.77274,-145.22752 -1.09958,-21.95106 20.45459,-32.72733 20.45459,-32.72733 z"
         transform="translate(-158.82681,-60.50072)"
         id="path1570" />
      <path
         style="fill:#ffb8b8"
         d="m 458.42733,627.82255 16.82365,9.9078 c 0,0 30.18279,-4.33064 29.24058,6.278 -0.94221,10.60864 -33.8887,8.55886 -33.8887,8.55886 l -20.275,-12.493 z"
         transform="translate(-158.82681,-60.50072)"
         id="path1572" />
      <circle
         style="fill:#2f2e41"
         cx="175.7429"
         cy="299.47504"
         r="20.259661"
         id="circle1574" />
      <path
         style="fill:#2f2e41"
         d="m 353.26293,349.08471 a 20.2502,20.2502 0 0 0 -24.24652,-19.836 20.25023,20.25023 0 1 1 12.63025,38.16451 20.243,20.243 0 0 0 11.61627,-18.32851 z"
         transform="translate(-158.82681,-60.50072)"
         id="path1576" />
      <path
         style="fill:#2f2e41"
         d="m 370.64347,360.57471 27.313,-5.02907 21.00491,13.16494 a 31.86273,31.86273 0 0 1 14.6776,31.09515 l -21.0372,-5.33225 -4.71074,-11.81208 -5.61047,9.196 -29.33406,37.75029 -16.46978,-10.48815 -14.68292,-23.00931 z"
         transform="translate(-158.82681,-60.50072)"
         id="path1578" />
      <path
         style="fill:#575a89"
         d="m 393.13569,465.07123 13.63639,-6.8182 c 0,0 28.63641,4.09092 34.091,23.18186 5.45459,19.09094 30,151.3639 30,151.3639 l -23.18184,10.90911 -32.72733,-80.45468 z"
         transform="translate(-158.82681,-60.50072)"
         id="path1580" />
      <polygon
         style="opacity:0.2"
         points="254.063,512.199 245.917,458.23 259.565,511.205 283.767,570.701 282.928,572.761 "
         id="polygon1582" />
      <polygon
         style="fill:#3f3d56"
         points="185.896,610.231 192.636,612.553 144.084,750.379 139.271,748.721 "
         id="polygon1584" />
      <polygon
         style="fill:#3f3d56"
         points="280.479,610.231 273.74,612.553 322.291,750.379 327.105,748.721 "
         id="polygon1586" />
      <polygon
         style="fill:#3f3d56"
         points="230.443,617.107 223.315,617.082 223.77,778.981 228.861,778.999 "
         id="polygon1588" />
      <path
         style="fill:#dd1c1a"
         d="m 291.12655,589.35709 13.96582,56.44513 a 44.82625,44.82625 0 0 0 32.64214,32.72145 h 8e-5 a 238.26046,238.26046 0 0 0 118.54694,-0.7638 l 20.8512,-5.49922 c 12.11558,-3.19531 21.22652,-13.60111 22.0886,-26.10127 a 25.68469,25.68469 0 0 0 -2.323,-12.8718 q -0.12219,-0.25966 -0.24559,-0.51476 A 34.06444,34.06444 0 0 0 467.05457,613.63437 L 444.96565,612.92183 364.521,577.28177 c 0,0 -27.66705,-14.0531 -50.4117,-15.62629 -15.02078,-1.03894 -26.59906,13.08573 -22.98275,27.70161 z"
         transform="translate(-158.82681,-60.50072)"
         id="path1590" />
      <rect
         style="fill:#e6e6e6"
         x="543.25653"
         y="351.3093"
         width="79.426453"
         height="107.93851"
         id="rect1592" />
      <rect
         style="fill:#ffffff"
         x="552.42114"
         y="363.76373"
         width="61.097271"
         height="83.029617"
         id="rect1594" />
      <rect
         style="fill:#3f3d56"
         x="576.46735"
         y="385.49176"
         width="29.60198"
         height="3.3728299"
         id="rect1596" />
      <rect
         style="fill:#3f3d56"
         x="559.87018"
         y="383.62466"
         width="7.1946301"
         height="7.1946301"
         id="rect1598" />
      <rect
         style="fill:#3f3d56"
         x="576.46735"
         y="399.7478"
         width="29.60198"
         height="3.3728299"
         id="rect1600" />
      <rect
         style="fill:#3f3d56"
         x="559.87018"
         y="397.88068"
         width="7.1946301"
         height="7.1946301"
         id="rect1602" />
      <rect
         style="fill:#3f3d56"
         x="576.46735"
         y="414.00381"
         width="29.60198"
         height="3.3728299"
         id="rect1604" />
      <rect
         style="fill:#3f3d56"
         x="559.87018"
         y="412.13672"
         width="7.1946301"
         height="7.1946301"
         id="rect1606" />
      <rect
         style="fill:#3f3d56"
         x="579.91492"
         y="354.36414"
         width="6.1097298"
         height="6.1097298"
         rx="3.0548601"
         id="rect1608" />
    </g>
  </g>
  <g
     id="layer4">
    <g
       transform="matrix(0.26458333,0,0,0.26458333,5.4166669,108.02529)"
       id="svgGroup-0"
       font-size="9pt"
       style="font-size:12px;fill:#0cce6b;fill-rule:evenodd;stroke:#0cce6b;stroke-width:0.25000001mm;stroke-linecap:round">
      <path
         style="vector-effect:non-scaling-stroke"
         d="m 44.73,28.98 v 13.09 a 5.216,5.216 0 0 0 0.04,0.625 6.983,6.983 0 0 0 0.1,0.6 5.213,5.213 0 0 0 0.289,0.938 4.649,4.649 0 0 0 0.131,0.287 4.441,4.441 0 0 0 0.446,0.718 3.884,3.884 0 0 0 0.219,0.262 1.286,1.286 0 0 0 0.451,0.325 1.263,1.263 0 0 0 0.494,0.095 v 0.7 h -9.1 v -0.7 q 0.56,0 0.98,-0.42 a 4.4,4.4 0 0 0 0.634,-0.808 5.027,5.027 0 0 0 0.101,-0.172 4.268,4.268 0 0 0 0.446,-1.184 4.77,4.77 0 0 0 0.009,-0.041 Q 40.11,42.63 40.11,42.07 V 26.95 q 0,-1.61 -0.455,-3.08 A 7.57,7.57 0 0 0 38.814,22.031 6.786,6.786 0 0 0 38.29,21.315 Q 37.38,20.23 36.05,19.565 34.72,18.9 33.04,18.9 a 6.836,6.836 0 0 0 -1.644,0.189 5.333,5.333 0 0 0 -1.611,0.686 7.892,7.892 0 0 0 -2.072,1.902 7.545,7.545 0 0 0 -0.168,0.233 10.476,10.476 0 0 0 -0.914,1.584 8.788,8.788 0 0 0 -0.381,0.971 11.717,11.717 0 0 0 -0.221,0.765 q -0.192,0.766 -0.199,1.331 a 3.424,3.424 0 0 0 0,0.039 v 15.47 a 5.216,5.216 0 0 0 0.04,0.625 6.983,6.983 0 0 0 0.1,0.6 4.301,4.301 0 0 0 0.416,1.155 4.052,4.052 0 0 0 0.039,0.07 q 0.315,0.56 0.7,0.98 a 1.286,1.286 0 0 0 0.451,0.325 1.263,1.263 0 0 0 0.494,0.095 v 0.7 h -9.03 v -0.7 a 1.152,1.152 0 0 0 0.641,-0.199 1.691,1.691 0 0 0 0.269,-0.221 4.4,4.4 0 0 0 0.634,-0.808 5.027,5.027 0 0 0 0.101,-0.172 4.268,4.268 0 0 0 0.446,-1.184 4.77,4.77 0 0 0 0.009,-0.041 Q 21.28,42.63 21.28,42.07 V 26.53 A 8.329,8.329 0 0 0 20.973,24.242 7.542,7.542 0 0 0 20.685,23.415 7.471,7.471 0 0 0 19.75,21.763 6.535,6.535 0 0 0 19.075,21 Q 18.06,20.02 16.765,19.46 A 6.642,6.642 0 0 0 14.555,18.914 6.291,6.291 0 0 0 14.14,18.9 8.02,8.02 0 0 0 12.534,19.054 6.128,6.128 0 0 0 10.955,19.6 7.615,7.615 0 0 0 9.507,20.555 6.434,6.434 0 0 0 8.715,21.35 Q 7.84,22.4 7.385,23.625 A 7.545,7.545 0 0 0 7.03,24.897 5.973,5.973 0 0 0 6.93,25.97 v 16.1 a 5.216,5.216 0 0 0 0.04,0.625 6.983,6.983 0 0 0 0.1,0.6 4.301,4.301 0 0 0 0.416,1.155 4.052,4.052 0 0 0 0.039,0.07 q 0.315,0.56 0.7,0.98 a 1.286,1.286 0 0 0 0.451,0.325 1.263,1.263 0 0 0 0.494,0.095 v 0.7 H 0.14 v -0.7 A 1.152,1.152 0 0 0 0.781,45.721 1.691,1.691 0 0 0 1.05,45.5 4.4,4.4 0 0 0 1.684,44.692 5.027,5.027 0 0 0 1.785,44.52 4.268,4.268 0 0 0 2.231,43.336 4.77,4.77 0 0 0 2.24,43.295 Q 2.38,42.63 2.38,42.07 V 23.38 A 10.694,10.694 0 0 0 2.364,22.805 Q 2.346,22.481 2.31,22.12 A 6.149,6.149 0 0 0 2.056,20.869 5.712,5.712 0 0 0 2.03,20.79 Q 1.82,20.16 1.33,19.74 0.84,19.32 0,19.32 v -0.63 l 6.93,-2.31 v 3.57 a 9.461,9.461 0 0 1 1.051,-1.01 q 0.796,-0.661 1.854,-1.3 1.855,-1.12 4.865,-1.12 1.96,0 3.5,0.56 a 10.991,10.991 0 0 1 1.734,0.799 9.165,9.165 0 0 1 0.961,0.636 q 1.155,0.875 1.995,1.995 a 18.799,18.799 0 0 1 0.856,1.238 14.722,14.722 0 0 1 0.544,0.932 q 0.56,-1.05 1.33,-2.135 a 10.576,10.576 0 0 1 1.712,-1.873 11.812,11.812 0 0 1 0.143,-0.122 8.216,8.216 0 0 1 1.69,-1.086 10.068,10.068 0 0 1 0.9,-0.384 q 1.411,-0.525 3.283,-0.558 a 14.365,14.365 0 0 1 0.252,-0.002 17.924,17.924 0 0 1 2.286,0.137 q 1.203,0.155 2.196,0.486 a 7.824,7.824 0 0 1 1.678,0.777 10.836,10.836 0 0 1 1.846,1.436 8.344,8.344 0 0 1 1.479,1.924 q 1.085,1.96 1.365,4.095 a 40.241,40.241 0 0 1 0.17,1.5 q 0.065,0.703 0.092,1.313 a 18.262,18.262 0 0 1 0.018,0.792 z m 194.95,-0.42 v 13.51 a 5.216,5.216 0 0 0 0.04,0.625 6.983,6.983 0 0 0 0.1,0.6 4.301,4.301 0 0 0 0.416,1.155 4.052,4.052 0 0 0 0.039,0.07 q 0.315,0.56 0.7,0.98 a 1.286,1.286 0 0 0 0.451,0.325 1.263,1.263 0 0 0 0.494,0.095 v 0.7 h -9.03 v -0.7 a 1.152,1.152 0 0 0 0.641,-0.199 1.691,1.691 0 0 0 0.269,-0.221 4.4,4.4 0 0 0 0.634,-0.808 5.027,5.027 0 0 0 0.101,-0.172 4.268,4.268 0 0 0 0.446,-1.184 4.77,4.77 0 0 0 0.009,-0.041 q 0.14,-0.665 0.14,-1.225 V 29.05 a 15.341,15.341 0 0 0 -0.144,-2.154 q -0.162,-1.146 -0.509,-2.126 a 9.364,9.364 0 0 0 -0.047,-0.13 10.27,10.27 0 0 0 -0.867,-1.806 8.161,8.161 0 0 0 -1.023,-1.344 7.655,7.655 0 0 0 -1.951,-1.51 7.094,7.094 0 0 0 -0.744,-0.345 Q 228.34,19.04 226.8,19.04 q -1.54,0 -3.045,0.595 -1.505,0.595 -2.66,1.645 a 8.279,8.279 0 0 0 -1.742,2.265 9.538,9.538 0 0 0 -0.148,0.29 7.327,7.327 0 0 0 -0.72,2.819 8.701,8.701 0 0 0 -0.015,0.506 v 14.91 a 5.216,5.216 0 0 0 0.04,0.625 6.983,6.983 0 0 0 0.1,0.6 4.301,4.301 0 0 0 0.416,1.155 4.052,4.052 0 0 0 0.039,0.07 q 0.315,0.56 0.7,0.98 a 1.286,1.286 0 0 0 0.451,0.325 1.263,1.263 0 0 0 0.494,0.095 v 0.7 h -9.1 v -0.7 a 1.152,1.152 0 0 0 0.641,-0.199 1.691,1.691 0 0 0 0.269,-0.221 4.4,4.4 0 0 0 0.634,-0.808 5.027,5.027 0 0 0 0.101,-0.172 4.268,4.268 0 0 0 0.446,-1.184 4.77,4.77 0 0 0 0.009,-0.041 q 0.14,-0.665 0.14,-1.225 V 6.3 A 7.206,7.206 0 0 0 213.636,4.526 6.569,6.569 0 0 0 213.5,4.06 1.439,1.439 0 0 0 212.668,3.181 Q 212.385,3.056 212.016,2.994 A 4.462,4.462 0 0 0 211.47,2.94 v -0.7 l 7,-2.17 V 20.3 a 9.643,9.643 0 0 1 0.444,-0.472 q 0.359,-0.358 0.816,-0.753 a 9.326,9.326 0 0 1 0.907,-0.687 12.528,12.528 0 0 1 0.948,-0.573 10.041,10.041 0 0 1 1.311,-0.595 13.247,13.247 0 0 1 1.209,-0.385 q 1.233,-0.331 2.854,-0.377 A 18.855,18.855 0 0 1 227.5,16.45 q 3.29,0 5.6,1.12 a 11.852,11.852 0 0 1 2.447,1.564 10.193,10.193 0 0 1 1.333,1.341 q 1.47,1.785 2.135,3.92 0.665,2.135 0.665,4.165 z m 137.41,0 v 13.51 a 5.216,5.216 0 0 0 0.04,0.625 6.983,6.983 0 0 0 0.1,0.6 4.301,4.301 0 0 0 0.416,1.155 4.052,4.052 0 0 0 0.039,0.07 q 0.315,0.56 0.7,0.98 a 1.286,1.286 0 0 0 0.451,0.325 1.263,1.263 0 0 0 0.494,0.095 v 0.7 h -9.03 v -0.7 a 1.152,1.152 0 0 0 0.641,-0.199 1.691,1.691 0 0 0 0.269,-0.221 4.4,4.4 0 0 0 0.634,-0.808 5.027,5.027 0 0 0 0.101,-0.172 4.268,4.268 0 0 0 0.446,-1.184 4.77,4.77 0 0 0 0.009,-0.041 q 0.14,-0.665 0.14,-1.225 V 29.05 a 15.341,15.341 0 0 0 -0.144,-2.154 q -0.162,-1.146 -0.509,-2.126 a 9.364,9.364 0 0 0 -0.047,-0.13 10.27,10.27 0 0 0 -0.867,-1.806 8.161,8.161 0 0 0 -1.023,-1.344 7.655,7.655 0 0 0 -1.951,-1.51 7.094,7.094 0 0 0 -0.744,-0.345 q -1.505,-0.595 -3.045,-0.595 -1.54,0 -3.045,0.595 -1.505,0.595 -2.66,1.645 a 8.279,8.279 0 0 0 -1.742,2.265 9.538,9.538 0 0 0 -0.148,0.29 7.327,7.327 0 0 0 -0.72,2.819 8.701,8.701 0 0 0 -0.015,0.506 v 14.91 a 5.216,5.216 0 0 0 0.04,0.625 6.983,6.983 0 0 0 0.1,0.6 4.301,4.301 0 0 0 0.416,1.155 4.052,4.052 0 0 0 0.039,0.07 q 0.315,0.56 0.7,0.98 a 1.286,1.286 0 0 0 0.451,0.325 1.263,1.263 0 0 0 0.494,0.095 v 0.7 h -9.1 v -0.7 a 1.152,1.152 0 0 0 0.641,-0.199 1.691,1.691 0 0 0 0.269,-0.221 4.4,4.4 0 0 0 0.634,-0.808 5.027,5.027 0 0 0 0.101,-0.172 4.268,4.268 0 0 0 0.446,-1.184 4.77,4.77 0 0 0 0.009,-0.041 q 0.14,-0.665 0.14,-1.225 V 6.3 A 7.206,7.206 0 0 0 351.046,4.526 6.569,6.569 0 0 0 350.91,4.06 1.439,1.439 0 0 0 350.078,3.181 Q 349.795,3.056 349.426,2.994 A 4.462,4.462 0 0 0 348.88,2.94 v -0.7 l 7,-2.17 V 20.3 a 9.643,9.643 0 0 1 0.444,-0.472 q 0.359,-0.358 0.816,-0.753 a 9.326,9.326 0 0 1 0.907,-0.687 12.528,12.528 0 0 1 0.948,-0.573 10.041,10.041 0 0 1 1.311,-0.595 13.247,13.247 0 0 1 1.209,-0.385 q 1.233,-0.331 2.854,-0.377 a 18.855,18.855 0 0 1 0.541,-0.008 q 3.29,0 5.6,1.12 a 11.852,11.852 0 0 1 2.447,1.564 10.193,10.193 0 0 1 1.333,1.341 q 1.47,1.785 2.135,3.92 0.665,2.135 0.665,4.165 z m -260.96,0 v 13.51 a 5.216,5.216 0 0 0 0.04,0.625 6.983,6.983 0 0 0 0.1,0.6 4.301,4.301 0 0 0 0.416,1.155 4.052,4.052 0 0 0 0.039,0.07 q 0.315,0.56 0.7,0.98 a 1.286,1.286 0 0 0 0.451,0.325 1.263,1.263 0 0 0 0.494,0.095 v 0.7 h -9.03 v -0.7 a 1.152,1.152 0 0 0 0.641,-0.199 1.691,1.691 0 0 0 0.269,-0.221 4.4,4.4 0 0 0 0.634,-0.808 5.027,5.027 0 0 0 0.101,-0.172 4.268,4.268 0 0 0 0.446,-1.184 4.77,4.77 0 0 0 0.009,-0.041 q 0.14,-0.665 0.14,-1.225 V 29.05 a 15.341,15.341 0 0 0 -0.144,-2.154 q -0.162,-1.146 -0.509,-2.126 a 9.364,9.364 0 0 0 -0.047,-0.13 10.27,10.27 0 0 0 -0.867,-1.806 8.161,8.161 0 0 0 -1.023,-1.344 7.655,7.655 0 0 0 -1.951,-1.51 7.094,7.094 0 0 0 -0.744,-0.345 q -1.505,-0.595 -3.045,-0.595 -1.54,0 -3.045,0.63 a 9.703,9.703 0 0 0 -2.422,1.443 9.101,9.101 0 0 0 -0.238,0.202 q -1.155,1.015 -1.89,2.38 a 5.976,5.976 0 0 0 -0.713,2.333 5.791,5.791 0 0 0 -0.022,0.502 v 15.54 a 5.216,5.216 0 0 0 0.04,0.625 6.983,6.983 0 0 0 0.1,0.6 4.301,4.301 0 0 0 0.416,1.155 4.052,4.052 0 0 0 0.039,0.07 q 0.315,0.56 0.7,0.98 a 1.286,1.286 0 0 0 0.451,0.325 1.263,1.263 0 0 0 0.494,0.095 v 0.7 h -9.1 v -0.7 a 1.152,1.152 0 0 0 0.641,-0.199 1.691,1.691 0 0 0 0.269,-0.221 4.4,4.4 0 0 0 0.634,-0.808 5.027,5.027 0 0 0 0.101,-0.172 4.268,4.268 0 0 0 0.446,-1.184 4.77,4.77 0 0 0 0.009,-0.041 Q 90.3,42.63 90.3,42.07 V 22.75 q 0,-1.19 -0.35,-2.275 A 1.48,1.48 0 0 0 89.057,19.541 Q 88.769,19.42 88.397,19.364 A 4.44,4.44 0 0 0 87.92,19.32 v -0.63 l 7,-2.24 v 3.85 a 9.643,9.643 0 0 1 0.444,-0.472 q 0.359,-0.358 0.816,-0.753 a 9.326,9.326 0 0 1 0.907,-0.687 12.528,12.528 0 0 1 0.948,-0.573 10.041,10.041 0 0 1 1.311,-0.595 13.247,13.247 0 0 1 1.209,-0.385 q 1.233,-0.331 2.854,-0.377 a 18.855,18.855 0 0 1 0.541,-0.008 q 3.29,0 5.6,1.12 a 11.852,11.852 0 0 1 2.447,1.564 10.193,10.193 0 0 1 1.333,1.341 q 1.47,1.785 2.135,3.92 0.665,2.135 0.665,4.165 z M 82.18,32.48 H 57.89 q 0.28,2.45 1.19,4.655 a 13.533,13.533 0 0 0 2.218,3.66 12.823,12.823 0 0 0 0.197,0.225 11.228,11.228 0 0 0 3.473,2.598 12.862,12.862 0 0 0 0.202,0.097 10.552,10.552 0 0 0 2.824,0.847 14.07,14.07 0 0 0 2.216,0.168 11.73,11.73 0 0 0 1.993,-0.178 14.587,14.587 0 0 0 1.262,-0.277 Q 75.18,43.82 76.65,42.98 78.12,42.14 79.275,40.915 80.43,39.69 80.85,38.15 h 0.63 v 5.25 q -0.33,0 -0.725,0.173 a 3.173,3.173 0 0 0 -0.22,0.107 21.013,21.013 0 0 0 -0.418,0.23 q -0.185,0.104 -0.387,0.221 a 38.965,38.965 0 0 0 -0.42,0.249 16.874,16.874 0 0 1 -1.078,0.59 q -0.57,0.287 -1.246,0.586 a 41.122,41.122 0 0 1 -1.456,0.609 q -1.717,0.682 -4.234,0.872 A 27.506,27.506 0 0 1 69.23,47.11 19.557,19.557 0 0 1 63.601,46.31 18.433,18.433 0 0 1 63.245,46.2 Q 60.41,45.29 58.24,43.4 A 12.936,12.936 0 0 1 55.477,39.974 15.758,15.758 0 0 1 54.775,38.57 q -1.295,-2.94 -1.295,-7 0,-2.59 0.875,-5.25 0.875,-2.66 2.66,-4.795 a 12.792,12.792 0 0 1 3.328,-2.797 15.535,15.535 0 0 1 1.257,-0.668 13.157,13.157 0 0 1 3.238,-1.028 q 1.412,-0.264 3.019,-0.297 a 22.526,22.526 0 0 1 0.463,-0.005 17.407,17.407 0 0 1 3.065,0.257 12.867,12.867 0 0 1 3.06,0.933 12.019,12.019 0 0 1 3.546,2.415 11.357,11.357 0 0 1 0.794,0.875 13.482,13.482 0 0 1 2.146,3.751 16.078,16.078 0 0 1 0.409,1.219 q 0.84,2.87 0.84,6.3 z m 194.74,0 h -24.29 q 0.28,2.45 1.19,4.655 a 13.533,13.533 0 0 0 2.218,3.66 12.823,12.823 0 0 0 0.197,0.225 11.228,11.228 0 0 0 3.473,2.598 12.862,12.862 0 0 0 0.202,0.097 10.552,10.552 0 0 0 2.824,0.847 14.07,14.07 0 0 0 2.216,0.168 11.73,11.73 0 0 0 1.993,-0.178 14.587,14.587 0 0 0 1.262,-0.277 q 1.715,-0.455 3.185,-1.295 1.47,-0.84 2.625,-2.065 1.155,-1.225 1.575,-2.765 h 0.63 v 5.25 q -0.33,0 -0.725,0.173 a 3.173,3.173 0 0 0 -0.22,0.107 21.013,21.013 0 0 0 -0.418,0.23 q -0.185,0.104 -0.387,0.221 a 38.965,38.965 0 0 0 -0.42,0.249 16.874,16.874 0 0 1 -1.078,0.59 q -0.57,0.287 -1.246,0.586 a 41.122,41.122 0 0 1 -1.456,0.609 q -1.717,0.682 -4.234,0.872 a 27.506,27.506 0 0 1 -2.066,0.073 19.557,19.557 0 0 1 -5.629,-0.8 18.433,18.433 0 0 1 -0.356,-0.11 q -2.835,-0.91 -5.005,-2.8 a 12.936,12.936 0 0 1 -2.763,-3.426 15.758,15.758 0 0 1 -0.702,-1.404 q -1.295,-2.94 -1.295,-7 0,-2.59 0.875,-5.25 0.875,-2.66 2.66,-4.795 a 12.792,12.792 0 0 1 3.328,-2.797 15.535,15.535 0 0 1 1.257,-0.668 13.157,13.157 0 0 1 3.238,-1.028 q 1.412,-0.264 3.019,-0.297 a 22.526,22.526 0 0 1 0.463,-0.005 17.407,17.407 0 0 1 3.065,0.257 12.867,12.867 0 0 1 3.06,0.933 12.019,12.019 0 0 1 3.546,2.415 11.357,11.357 0 0 1 0.794,0.875 13.482,13.482 0 0 1 2.146,3.751 16.078,16.078 0 0 1 0.409,1.219 q 0.84,2.87 0.84,6.3 z M 170.45,46.62 h -6.79 v -3.57 l -0.35,0.35 q -1.75,1.75 -4.025,2.73 -2.275,0.98 -5.495,0.98 a 17.979,17.979 0 0 1 -1.875,-0.092 q -1.286,-0.135 -2.325,-0.468 a 9.134,9.134 0 0 1 -1.479,-0.613 6.739,6.739 0 0 1 -1.391,-0.962 6.296,6.296 0 0 1 -1.466,-1.937 6.051,6.051 0 0 1 -0.179,-0.408 q -0.525,-1.33 -0.525,-2.8 a 7.407,7.407 0 0 1 0.469,-2.661 6.865,6.865 0 0 1 0.826,-1.539 q 1.295,-1.82 3.745,-3.22 a 25.62,25.62 0 0 1 2.351,-1.178 q 1.646,-0.727 3.634,-1.377 a 94.555,94.555 0 0 1 3.537,-1.075 q 2.131,-0.605 4.548,-1.2 a 13.718,13.718 0 0 0 -0.209,-1.827 q -0.175,-0.93 -0.481,-1.696 a 6.664,6.664 0 0 0 -0.43,-0.887 9.555,9.555 0 0 0 -1.031,-1.455 7.279,7.279 0 0 0 -1.279,-1.17 q -1.33,-0.945 -2.8,-1.26 a 17.105,17.105 0 0 0 -1.043,-0.192 Q 155.566,18.97 154.91,18.97 a 10.021,10.021 0 0 0 -1.556,0.115 q -0.883,0.139 -1.629,0.445 a 9.043,9.043 0 0 0 -1.694,0.907 7.896,7.896 0 0 0 -0.686,0.528 10.303,10.303 0 0 0 -1.345,1.391 9.167,9.167 0 0 0 -0.37,0.499 15.301,15.301 0 0 0 -0.628,0.985 11.206,11.206 0 0 0 -0.492,0.94 h -0.63 v -5.11 q 0.56,-0.07 1.05,-0.35 a 7.5,7.5 0 0 1 0.464,-0.243 q 0.247,-0.119 0.532,-0.238 a 13.79,13.79 0 0 1 0.194,-0.079 46.869,46.869 0 0 0 0.573,-0.234 q 0.641,-0.266 1.486,-0.635 a 166.707,166.707 0 0 0 0.811,-0.356 q 1.744,-0.771 4.838,-0.804 a 26.151,26.151 0 0 1 0.272,-0.001 24.745,24.745 0 0 1 2.473,0.116 q 2.195,0.221 3.757,0.864 a 11.102,11.102 0 0 1 1.815,0.939 q 1.111,0.72 1.86,1.651 1.295,1.61 1.715,3.675 0.42,2.065 0.42,4.235 v 13.86 q 0,1.4 0.63,2.625 a 3.147,3.147 0 0 0 0.364,0.564 q 0.545,0.661 1.316,0.661 z m 135.66,0 h -6.79 v -3.57 l -0.35,0.35 q -1.75,1.75 -4.025,2.73 -2.275,0.98 -5.495,0.98 a 17.979,17.979 0 0 1 -1.875,-0.092 q -1.286,-0.135 -2.325,-0.468 a 9.134,9.134 0 0 1 -1.479,-0.613 6.739,6.739 0 0 1 -1.391,-0.962 6.296,6.296 0 0 1 -1.466,-1.937 6.051,6.051 0 0 1 -0.179,-0.408 q -0.525,-1.33 -0.525,-2.8 a 7.407,7.407 0 0 1 0.469,-2.661 6.865,6.865 0 0 1 0.826,-1.539 q 1.295,-1.82 3.745,-3.22 a 25.62,25.62 0 0 1 2.351,-1.178 q 1.646,-0.727 3.634,-1.377 a 94.555,94.555 0 0 1 3.537,-1.075 q 2.131,-0.605 4.548,-1.2 a 13.718,13.718 0 0 0 -0.209,-1.827 q -0.175,-0.93 -0.481,-1.696 a 6.664,6.664 0 0 0 -0.43,-0.887 9.555,9.555 0 0 0 -1.031,-1.455 7.279,7.279 0 0 0 -1.279,-1.17 q -1.33,-0.945 -2.8,-1.26 a 17.105,17.105 0 0 0 -1.043,-0.192 Q 291.226,18.97 290.57,18.97 a 10.021,10.021 0 0 0 -1.556,0.115 q -0.883,0.139 -1.629,0.445 a 9.043,9.043 0 0 0 -1.694,0.907 7.896,7.896 0 0 0 -0.686,0.528 10.303,10.303 0 0 0 -1.345,1.391 9.167,9.167 0 0 0 -0.37,0.499 15.301,15.301 0 0 0 -0.628,0.985 11.206,11.206 0 0 0 -0.492,0.94 h -0.63 v -5.11 q 0.56,-0.07 1.05,-0.35 a 7.5,7.5 0 0 1 0.464,-0.243 q 0.247,-0.119 0.532,-0.238 a 13.79,13.79 0 0 1 0.194,-0.079 46.869,46.869 0 0 0 0.573,-0.234 q 0.641,-0.266 1.486,-0.635 a 166.707,166.707 0 0 0 0.811,-0.356 q 1.744,-0.771 4.838,-0.804 a 26.151,26.151 0 0 1 0.272,-0.001 24.745,24.745 0 0 1 2.473,0.116 q 2.195,0.221 3.757,0.864 a 11.102,11.102 0 0 1 1.815,0.939 q 1.111,0.72 1.86,1.651 1.295,1.61 1.715,3.675 0.42,2.065 0.42,4.235 v 13.86 q 0,1.4 0.63,2.625 a 3.147,3.147 0 0 0 0.364,0.564 q 0.545,0.661 1.316,0.661 z M 139.93,19.6 h -7.84 v 16.87 q 0,1.82 0.07,3.29 a 15.402,15.402 0 0 0 0.082,1.031 q 0.093,0.806 0.268,1.419 0.229,0.803 0.647,1.3 a 2.352,2.352 0 0 0 0.193,0.205 1.862,1.862 0 0 0 0.826,0.442 q 0.283,0.073 0.617,0.082 a 3.545,3.545 0 0 0 0.097,0.001 3.203,3.203 0 0 0 1.705,-0.507 q 0.459,-0.283 0.898,-0.724 a 6.449,6.449 0 0 0 0.162,-0.169 q 1.295,-1.4 1.645,-3.36 h 0.63 v 5.11 a 1.552,1.552 0 0 0 -0.553,0.095 1.395,1.395 0 0 0 -0.497,0.325 5.82,5.82 0 0 1 -0.439,0.345 q -0.235,0.169 -0.519,0.345 a 14.03,14.03 0 0 1 -0.617,0.36 q -0.919,0.507 -2.67,0.555 a 13.701,13.701 0 0 1 -0.375,0.005 q -2.52,0 -3.92,-0.98 -1.4,-0.98 -2.03,-2.59 a 10.753,10.753 0 0 1 -0.618,-2.377 13.171,13.171 0 0 1 -0.117,-1.193 Q 127.47,37.52 127.47,35.49 V 19.6 h -3.92 v -2.38 h 3.92 V 10.99 A 7.909,7.909 0 0 0 127.347,9.571 6.701,6.701 0 0 0 127.155,8.785 1.307,1.307 0 0 0 126.449,7.99 Q 125.953,7.742 125.141,7.702 A 6.018,6.018 0 0 0 125.09,7.7 V 7 l 7,-2.24 v 12.46 h 7.84 z m 203.77,0 h -7.84 v 16.87 q 0,1.82 0.07,3.29 a 15.402,15.402 0 0 0 0.082,1.031 q 0.093,0.806 0.268,1.419 0.229,0.803 0.647,1.3 a 2.352,2.352 0 0 0 0.193,0.205 1.862,1.862 0 0 0 0.826,0.442 q 0.283,0.073 0.617,0.082 a 3.545,3.545 0 0 0 0.097,0.001 3.203,3.203 0 0 0 1.705,-0.507 q 0.459,-0.283 0.898,-0.724 a 6.449,6.449 0 0 0 0.162,-0.169 q 1.295,-1.4 1.645,-3.36 h 0.63 v 5.11 a 1.552,1.552 0 0 0 -0.553,0.095 1.395,1.395 0 0 0 -0.497,0.325 5.82,5.82 0 0 1 -0.439,0.345 q -0.235,0.169 -0.519,0.345 a 14.03,14.03 0 0 1 -0.617,0.36 q -0.919,0.507 -2.67,0.555 a 13.701,13.701 0 0 1 -0.375,0.005 q -2.52,0 -3.92,-0.98 -1.4,-0.98 -2.03,-2.59 a 10.753,10.753 0 0 1 -0.618,-2.377 13.171,13.171 0 0 1 -0.117,-1.193 Q 331.24,37.52 331.24,35.49 V 19.6 h -3.92 v -2.38 h 3.92 V 10.99 A 7.909,7.909 0 0 0 331.117,9.571 6.701,6.701 0 0 0 330.925,8.785 1.307,1.307 0 0 0 330.219,7.99 Q 329.723,7.742 328.911,7.702 A 6.018,6.018 0 0 0 328.86,7.7 V 7 l 7,-2.24 v 12.46 h 7.84 z M 186.62,46.62 h -9.17 v -0.7 q 0.56,0 0.98,-0.42 a 4.4,4.4 0 0 0 0.634,-0.808 5.027,5.027 0 0 0 0.101,-0.172 4.268,4.268 0 0 0 0.446,-1.184 4.77,4.77 0 0 0 0.009,-0.041 q 0.14,-0.665 0.14,-1.225 V 6.23 A 7.206,7.206 0 0 0 179.546,4.456 6.569,6.569 0 0 0 179.41,3.99 q -0.35,-1.05 -2.1,-1.12 V 2.17 L 184.38,0 v 42.07 a 5.216,5.216 0 0 0 0.04,0.625 6.983,6.983 0 0 0 0.1,0.6 4.301,4.301 0 0 0 0.416,1.155 4.052,4.052 0 0 0 0.039,0.07 q 0.315,0.56 0.7,0.98 a 1.286,1.286 0 0 0 0.451,0.325 1.263,1.263 0 0 0 0.494,0.095 z m 135.66,0 h -9.17 v -0.7 q 0.56,0 0.98,-0.42 a 4.4,4.4 0 0 0 0.634,-0.808 5.027,5.027 0 0 0 0.101,-0.172 4.268,4.268 0 0 0 0.446,-1.184 4.77,4.77 0 0 0 0.009,-0.041 q 0.14,-0.665 0.14,-1.225 V 6.23 A 7.206,7.206 0 0 0 315.206,4.456 6.569,6.569 0 0 0 315.07,3.99 q -0.35,-1.05 -2.1,-1.12 V 2.17 L 320.04,0 v 42.07 a 5.216,5.216 0 0 0 0.04,0.625 6.983,6.983 0 0 0 0.1,0.6 4.301,4.301 0 0 0 0.416,1.155 4.052,4.052 0 0 0 0.039,0.07 q 0.315,0.56 0.7,0.98 a 1.286,1.286 0 0 0 0.451,0.325 1.263,1.263 0 0 0 0.494,0.095 z M 57.89,29.96 H 77.84 Q 77.77,27.93 77.105,25.97 A 12.089,12.089 0 0 0 75.544,22.868 11.291,11.291 0 0 0 75.25,22.47 8.957,8.957 0 0 0 72.268,20 10.251,10.251 0 0 0 72.24,19.985 8.338,8.338 0 0 0 69.542,19.142 10.736,10.736 0 0 0 68.04,19.04 10.287,10.287 0 0 0 65.956,19.241 7.664,7.664 0 0 0 63.805,20.02 Q 62.02,21 60.76,22.54 59.5,24.08 58.8,26.04 a 17.061,17.061 0 0 0 -0.896,3.798 15.975,15.975 0 0 0 -0.014,0.122 z m 194.74,0 h 19.95 q -0.07,-2.03 -0.735,-3.99 a 12.089,12.089 0 0 0 -1.561,-3.102 11.291,11.291 0 0 0 -0.294,-0.398 8.957,8.957 0 0 0 -2.982,-2.47 10.251,10.251 0 0 0 -0.028,-0.015 8.338,8.338 0 0 0 -2.698,-0.843 10.736,10.736 0 0 0 -1.502,-0.102 10.287,10.287 0 0 0 -2.084,0.201 7.664,7.664 0 0 0 -2.151,0.779 q -1.785,0.98 -3.045,2.52 -1.26,1.54 -1.96,3.5 a 17.061,17.061 0 0 0 -0.896,3.798 15.975,15.975 0 0 0 -0.014,0.122 z m -89.74,10.85 0.77,-0.84 V 29.96 l -0.7,0.14 q -1.68,0.42 -4.095,1.12 -2.415,0.7 -4.585,1.82 a 15.802,15.802 0 0 0 -2.466,1.564 13.365,13.365 0 0 0 -1.244,1.096 5.419,5.419 0 0 0 -1.092,1.524 4.749,4.749 0 0 0 -0.448,2.046 4.507,4.507 0 0 0 1.469,3.403 5.923,5.923 0 0 0 0.351,0.307 q 1.82,1.47 4.76,1.47 a 8.924,8.924 0 0 0 2.17,-0.254 7.251,7.251 0 0 0 1.89,-0.761 13.39,13.39 0 0 0 2.836,-2.22 15.299,15.299 0 0 0 0.384,-0.405 z m 135.66,0 0.77,-0.84 V 29.96 l -0.7,0.14 q -1.68,0.42 -4.095,1.12 -2.415,0.7 -4.585,1.82 a 15.802,15.802 0 0 0 -2.466,1.564 13.365,13.365 0 0 0 -1.244,1.096 5.419,5.419 0 0 0 -1.092,1.524 4.749,4.749 0 0 0 -0.448,2.046 4.507,4.507 0 0 0 1.469,3.403 5.923,5.923 0 0 0 0.351,0.307 q 1.82,1.47 4.76,1.47 a 8.924,8.924 0 0 0 2.17,-0.254 7.251,7.251 0 0 0 1.89,-0.761 13.39,13.39 0 0 0 2.836,-2.22 15.299,15.299 0 0 0 0.384,-0.405 z"
         id="path1762" />
    </g>
  </g>
  <g
     id="layer3">
    <g
       transform="matrix(0.26458333,0,0,0.26458333,5.4166669,85.314153)"
       id="svgGroup-9"
       font-size="9pt"
       style="font-size:12px;fill:#000000;fill-rule:evenodd;stroke:#001b2e;stroke-width:0.25000001mm;stroke-linecap:round">
      <path
         style="vector-effect:non-scaling-stroke"
         d="m 239.4,46.62 h -3.99 q -1.19,0 -2.205,-0.525 a 11.143,11.143 0 0 1 -1.119,-0.66 9.054,9.054 0 0 1 -0.666,-0.495 q -0.91,-0.77 -1.68,-1.68 l -9.03,-11.62 -1.47,1.47 v 9.1 q 0,0.421 0.103,0.946 a 7.417,7.417 0 0 0 0.037,0.174 q 0.14,0.63 0.455,1.225 a 4.079,4.079 0 0 0 0.353,0.558 3.165,3.165 0 0 0 0.382,0.422 q 0.42,0.385 0.98,0.385 v 0.7 h -9.1 v -0.7 a 1.242,1.242 0 0 0 0.696,-0.217 1.721,1.721 0 0 0 0.214,-0.168 3.121,3.121 0 0 0 0.58,-0.725 3.687,3.687 0 0 0 0.12,-0.22 q 0.28,-0.56 0.42,-1.19 a 6.04,6.04 0 0 0 0.113,-0.687 4.881,4.881 0 0 0 0.027,-0.503 V 6.58 A 3.285,3.285 0 0 0 214.35,5.298 4.435,4.435 0 0 0 213.99,4.62 2.563,2.563 0 0 0 213.483,4.033 1.987,1.987 0 0 0 212.31,3.57 v -0.7 l 6.93,-2.17 v 29.19 l 11.34,-10.64 a 1.145,1.145 0 0 0 0.35,-0.825 1.367,1.367 0 0 0 0,-0.015 0.705,0.705 0 0 0 -0.024,-0.194 Q 230.821,17.92 230.44,17.92 v -0.7 h 6.3 v 0.7 a 1.873,1.873 0 0 0 -0.511,0.074 2.481,2.481 0 0 0 -0.364,0.136 q -0.455,0.21 -0.875,0.49 -0.49,0.28 -0.98,0.7 l -9.94,9.24 10.36,13.09 q 0.91,1.26 1.82,2.17 0.77,0.77 1.645,1.435 a 5.026,5.026 0 0 0 0.467,0.318 q 0.506,0.301 0.915,0.341 A 1.267,1.267 0 0 0 239.4,45.92 Z M 394.8,16.45 v 25.62 a 4.248,4.248 0 0 0 0.023,0.427 q 0.021,0.208 0.062,0.441 a 8.281,8.281 0 0 0 0.055,0.287 7.212,7.212 0 0 0 0.37,1.223 6.711,6.711 0 0 0 0.015,0.037 q 0.245,0.595 0.665,1.015 a 1.464,1.464 0 0 0 0.432,0.305 1.315,1.315 0 0 0 0.548,0.115 v 0.7 h -6.79 v -3.85 q -0.884,1.296 -2.462,2.543 A 18.522,18.522 0 0 1 387.1,45.78 q -2.03,1.47 -5.25,1.47 a 19.173,19.173 0 0 1 -2.483,-0.151 q -1.253,-0.164 -2.291,-0.506 A 8.562,8.562 0 0 1 375.41,45.85 10.601,10.601 0 0 1 373.005,43.945 9.259,9.259 0 0 1 371.77,42.28 q -1.26,-2.17 -1.61,-4.725 A 38.615,38.615 0 0 1 369.868,34.632 31.245,31.245 0 0 1 369.81,32.76 V 22.75 a 20.922,20.922 0 0 0 -0.033,-1.188 19.344,19.344 0 0 0 -0.002,-0.037 2.878,2.878 0 0 0 -0.147,-0.768 2.577,2.577 0 0 0 -0.133,-0.317 2.012,2.012 0 0 0 -0.69,-0.775 2.395,2.395 0 0 0 -0.045,-0.03 q -0.35,-0.225 -0.913,-0.289 A 4.299,4.299 0 0 0 367.36,19.32 v -0.63 l 7.07,-2.24 V 34.3 q 0,3.252 0.863,5.457 a 7.556,7.556 0 0 0 1.447,2.383 q 2.31,2.52 5.67,2.52 1.82,0 3.255,-0.805 1.435,-0.805 2.45,-1.925 1.015,-1.12 1.54,-2.31 0.5,-1.133 0.524,-1.886 A 2.349,2.349 0 0 0 390.18,37.66 V 22.75 a 20.922,20.922 0 0 0 -0.033,-1.188 19.344,19.344 0 0 0 -0.002,-0.037 2.878,2.878 0 0 0 -0.147,-0.768 2.577,2.577 0 0 0 -0.133,-0.317 2.012,2.012 0 0 0 -0.69,-0.775 2.395,2.395 0 0 0 -0.045,-0.03 q -0.35,-0.225 -0.913,-0.289 A 4.299,4.299 0 0 0 387.73,19.32 V 18.69 Z M 0,46.62 v -0.7 h 0.35 q 0.56,0 0.98,-0.385 A 3.586,3.586 0 0 0 1.869,44.907 4.351,4.351 0 0 0 2.065,44.59 Q 2.38,44.03 2.555,43.4 A 4.951,4.951 0 0 0 2.695,42.723 3.922,3.922 0 0 0 2.73,42.21 V 4.76 A 3.319,3.319 0 0 0 2.697,4.304 Q 2.664,4.073 2.601,3.816 A 6.144,6.144 0 0 0 2.555,3.64 Q 2.38,3.01 2.065,2.45 1.75,1.89 1.33,1.505 0.91,1.12 0.35,1.12 H 0 v -0.7 h 10.08 v 0.7 H 9.73 q -0.56,0 -0.98,0.385 A 3.121,3.121 0 0 0 8.17,2.23 3.687,3.687 0 0 0 8.05,2.45 Q 7.77,3.01 7.595,3.64 7.449,4.165 7.425,4.592 A 2.949,2.949 0 0 0 7.42,4.76 V 44.03 H 22.75 A 4.729,4.729 0 0 0 23.956,43.882 3.826,3.826 0 0 0 25.06,43.4 q 0.98,-0.63 1.645,-1.575 0.665,-0.945 0.98,-2.03 a 8.584,8.584 0 0 0 0.226,-0.979 Q 27.997,38.3 28,37.83 a 5.284,5.284 0 0 0 0,-0.03 h 0.7 v 8.82 z M 96.67,43.4 v -5.32 h 0.7 a 3.313,3.313 0 0 0 0.271,0.76 q 0.175,0.357 0.444,0.735 a 8.027,8.027 0 0 0 0.51,0.64 12.248,12.248 0 0 0 1.584,1.497 14.817,14.817 0 0 0 0.866,0.638 15.448,15.448 0 0 0 3.043,1.603 17.069,17.069 0 0 0 0.107,0.042 q 1.715,0.665 3.465,0.665 a 12.331,12.331 0 0 0 2.176,-0.199 13.931,13.931 0 0 0 0.414,-0.081 8.342,8.342 0 0 0 1.857,-0.617 7.499,7.499 0 0 0 0.558,-0.293 q 1.085,-0.63 1.82,-1.575 0.735,-0.945 0.735,-2.275 a 3.855,3.855 0 0 0 -0.237,-1.368 3.528,3.528 0 0 0 -0.533,-0.942 q -0.77,-0.98 -1.96,-1.715 A 13.464,13.464 0 0 0 110.953,34.784 17.111,17.111 0 0 0 109.76,34.3 q -1.54,-0.56 -3.08,-1.05 -1.82,-0.56 -3.675,-1.26 A 18.976,18.976 0 0 1 100.837,31.019 15.72,15.72 0 0 1 99.68,30.345 8.183,8.183 0 0 1 97.677,28.552 7.671,7.671 0 0 1 97.3,28.035 5.379,5.379 0 0 1 96.462,25.802 7.025,7.025 0 0 1 96.39,24.78 q 0,-1.61 0.595,-3.08 a 6.065,6.065 0 0 1 1.514,-2.171 7.399,7.399 0 0 1 0.446,-0.384 8.632,8.632 0 0 1 1.457,-0.925 q 0.737,-0.376 1.619,-0.677 a 15.433,15.433 0 0 1 0.459,-0.148 13.923,13.923 0 0 1 2.063,-0.453 q 1.041,-0.152 2.232,-0.195 a 26.581,26.581 0 0 1 0.955,-0.017 26.491,26.491 0 0 1 1.55,0.042 q 1.639,0.097 2.685,0.413 a 22.237,22.237 0 0 1 1.055,0.346 q 0.505,0.181 0.931,0.367 a 10.44,10.44 0 0 1 0.499,0.232 6.057,6.057 0 0 0 0.866,0.399 5.258,5.258 0 0 0 0.394,0.126 4.73,4.73 0 0 0 0.797,0.146 6.075,6.075 0 0 0 0.603,0.029 v 4.9 h -0.56 A 7.935,7.935 0 0 0 113.212,20.483 9.94,9.94 0 0 0 112.7,20.23 q -2.59,-1.19 -5.32,-1.19 -1.75,0 -3.01,0.455 -1.26,0.455 -2.065,1.12 -0.805,0.665 -1.19,1.505 -0.385,0.84 -0.385,1.68 0,1.19 0.665,2.03 a 5.102,5.102 0 0 0 0.888,0.867 7.02,7.02 0 0 0 0.932,0.603 20.272,20.272 0 0 0 1.388,0.687 25.681,25.681 0 0 0 1.202,0.503 40.717,40.717 0 0 0 2.251,0.801 46.485,46.485 0 0 0 0.794,0.249 q 1.96,0.63 3.92,1.365 a 17.546,17.546 0 0 1 2.286,1.042 14.773,14.773 0 0 1 1.214,0.743 q 1.54,1.05 2.52,2.485 a 5.565,5.565 0 0 1 0.889,2.283 7.407,7.407 0 0 1 0.091,1.182 q 0,1.82 -0.91,3.36 a 8.83,8.83 0 0 1 -1.963,2.287 10.423,10.423 0 0 1 -0.522,0.408 11.918,11.918 0 0 1 -2.474,1.382 14.478,14.478 0 0 1 -1.201,0.438 14.38,14.38 0 0 1 -3.31,0.621 17.11,17.11 0 0 1 -1.24,0.044 18.521,18.521 0 0 1 -1.937,-0.095 q -0.969,-0.102 -1.785,-0.314 a 8.365,8.365 0 0 1 -1.178,-0.396 28.468,28.468 0 0 1 -1.547,-0.711 q -0.694,-0.346 -1.288,-0.698 A 16,16 0 0 1 100.03,44.73 25.988,25.988 0 0 0 99.168,44.221 q -0.427,-0.24 -0.818,-0.436 a 3.691,3.691 0 0 0 -1.623,-0.385 4.271,4.271 0 0 0 -0.057,0 z m 204.75,0 v 3.22 h -6.86 v -0.7 a 1.152,1.152 0 0 0 0.641,-0.199 1.691,1.691 0 0 0 0.269,-0.221 4.4,4.4 0 0 0 0.634,-0.808 5.027,5.027 0 0 0 0.101,-0.172 4.268,4.268 0 0 0 0.446,-1.184 4.77,4.77 0 0 0 0.009,-0.041 Q 296.8,42.63 296.8,42.07 V 6.37 A 7.206,7.206 0 0 0 296.586,4.596 6.569,6.569 0 0 0 296.45,4.13 1.439,1.439 0 0 0 295.618,3.251 Q 295.335,3.126 294.966,3.064 A 4.462,4.462 0 0 0 294.42,3.01 v -0.7 l 7,-2.17 v 20.02 q 1.61,-1.61 3.815,-2.52 2.205,-0.91 4.235,-0.91 a 19.101,19.101 0 0 1 3.113,0.241 q 1.759,0.291 3.236,0.932 a 11.862,11.862 0 0 1 0.196,0.087 13.886,13.886 0 0 1 3.214,2.008 12.312,12.312 0 0 1 1.371,1.352 q 1.82,2.1 2.73,4.795 0.91,2.695 0.91,5.495 0,2.87 -0.91,5.635 -0.91,2.765 -2.765,4.97 a 13.796,13.796 0 0 1 -4.542,3.514 15.763,15.763 0 0 1 -0.043,0.021 13.017,13.017 0 0 1 -3.843,1.158 16.975,16.975 0 0 1 -2.457,0.172 11.269,11.269 0 0 1 -3.134,-0.424 9.935,9.935 0 0 1 -1.696,-0.661 12.227,12.227 0 0 1 -1.807,-1.097 A 8.982,8.982 0 0 1 301.42,43.4 Z M 60.69,32.48 H 36.4 q 0.28,2.45 1.19,4.655 a 13.533,13.533 0 0 0 2.218,3.66 12.823,12.823 0 0 0 0.197,0.225 11.228,11.228 0 0 0 3.473,2.598 12.862,12.862 0 0 0 0.202,0.097 10.552,10.552 0 0 0 2.824,0.847 14.07,14.07 0 0 0 2.216,0.168 11.73,11.73 0 0 0 1.993,-0.178 14.587,14.587 0 0 0 1.262,-0.277 Q 53.69,43.82 55.16,42.98 56.63,42.14 57.785,40.915 58.94,39.69 59.36,38.15 h 0.63 v 5.25 q -0.33,0 -0.725,0.173 a 3.173,3.173 0 0 0 -0.22,0.107 21.013,21.013 0 0 0 -0.418,0.23 q -0.185,0.104 -0.387,0.221 a 38.965,38.965 0 0 0 -0.42,0.249 16.874,16.874 0 0 1 -1.078,0.59 q -0.57,0.287 -1.246,0.586 a 41.122,41.122 0 0 1 -1.456,0.609 q -1.717,0.682 -4.234,0.872 A 27.506,27.506 0 0 1 47.74,47.11 19.557,19.557 0 0 1 42.111,46.31 18.433,18.433 0 0 1 41.755,46.2 Q 38.92,45.29 36.75,43.4 A 12.936,12.936 0 0 1 33.987,39.974 15.758,15.758 0 0 1 33.285,38.57 q -1.295,-2.94 -1.295,-7 0,-2.59 0.875,-5.25 0.875,-2.66 2.66,-4.795 a 12.792,12.792 0 0 1 3.328,-2.797 15.535,15.535 0 0 1 1.257,-0.668 13.157,13.157 0 0 1 3.238,-1.028 q 1.412,-0.264 3.019,-0.297 a 22.526,22.526 0 0 1 0.463,-0.005 17.407,17.407 0 0 1 3.065,0.257 12.867,12.867 0 0 1 3.06,0.933 12.019,12.019 0 0 1 3.546,2.415 11.357,11.357 0 0 1 0.794,0.875 13.482,13.482 0 0 1 2.146,3.751 16.078,16.078 0 0 1 0.409,1.219 q 0.84,2.87 0.84,6.3 z m 128.52,14.14 h -6.79 v -3.57 l -0.35,0.35 q -1.75,1.75 -4.025,2.73 -2.275,0.98 -5.495,0.98 a 17.979,17.979 0 0 1 -1.875,-0.092 q -1.286,-0.135 -2.325,-0.468 a 9.134,9.134 0 0 1 -1.479,-0.613 6.739,6.739 0 0 1 -1.391,-0.962 6.296,6.296 0 0 1 -1.466,-1.937 6.051,6.051 0 0 1 -0.179,-0.408 q -0.525,-1.33 -0.525,-2.8 a 7.407,7.407 0 0 1 0.469,-2.661 6.865,6.865 0 0 1 0.826,-1.539 q 1.295,-1.82 3.745,-3.22 a 25.62,25.62 0 0 1 2.351,-1.178 q 1.646,-0.727 3.634,-1.377 a 94.555,94.555 0 0 1 3.537,-1.075 q 2.131,-0.605 4.548,-1.2 a 13.718,13.718 0 0 0 -0.209,-1.827 q -0.175,-0.93 -0.481,-1.696 a 6.664,6.664 0 0 0 -0.43,-0.887 9.555,9.555 0 0 0 -1.031,-1.455 7.279,7.279 0 0 0 -1.279,-1.17 q -1.33,-0.945 -2.8,-1.26 a 17.105,17.105 0 0 0 -1.043,-0.192 Q 174.326,18.97 173.67,18.97 a 10.021,10.021 0 0 0 -1.556,0.115 q -0.883,0.139 -1.629,0.445 a 9.043,9.043 0 0 0 -1.694,0.907 7.896,7.896 0 0 0 -0.686,0.528 10.303,10.303 0 0 0 -1.345,1.391 9.167,9.167 0 0 0 -0.37,0.499 15.301,15.301 0 0 0 -0.628,0.985 11.206,11.206 0 0 0 -0.492,0.94 h -0.63 v -5.11 q 0.56,-0.07 1.05,-0.35 a 7.5,7.5 0 0 1 0.464,-0.243 q 0.247,-0.119 0.532,-0.238 a 13.79,13.79 0 0 1 0.194,-0.079 46.869,46.869 0 0 0 0.573,-0.234 q 0.641,-0.266 1.486,-0.635 a 166.707,166.707 0 0 0 0.811,-0.356 q 1.744,-0.771 4.838,-0.804 a 26.151,26.151 0 0 1 0.272,-0.001 24.745,24.745 0 0 1 2.473,0.116 q 2.195,0.221 3.757,0.864 a 11.102,11.102 0 0 1 1.815,0.939 q 1.111,0.72 1.86,1.651 1.295,1.61 1.715,3.675 0.42,2.065 0.42,4.235 v 13.86 q 0,1.4 0.63,2.625 a 3.147,3.147 0 0 0 0.364,0.564 q 0.545,0.661 1.316,0.661 z m 98.56,0 h -6.79 v -3.57 l -0.35,0.35 q -1.75,1.75 -4.025,2.73 -2.275,0.98 -5.495,0.98 a 17.979,17.979 0 0 1 -1.875,-0.092 q -1.286,-0.135 -2.325,-0.468 a 9.134,9.134 0 0 1 -1.479,-0.613 6.739,6.739 0 0 1 -1.391,-0.962 6.296,6.296 0 0 1 -1.466,-1.937 6.051,6.051 0 0 1 -0.179,-0.408 q -0.525,-1.33 -0.525,-2.8 a 7.407,7.407 0 0 1 0.469,-2.661 6.865,6.865 0 0 1 0.826,-1.539 q 1.295,-1.82 3.745,-3.22 a 25.62,25.62 0 0 1 2.351,-1.178 q 1.646,-0.727 3.634,-1.377 a 94.555,94.555 0 0 1 3.537,-1.075 q 2.131,-0.605 4.548,-1.2 a 13.718,13.718 0 0 0 -0.209,-1.827 q -0.175,-0.93 -0.481,-1.696 a 6.664,6.664 0 0 0 -0.43,-0.887 9.555,9.555 0 0 0 -1.031,-1.455 7.279,7.279 0 0 0 -1.279,-1.17 q -1.33,-0.945 -2.8,-1.26 a 17.105,17.105 0 0 0 -1.043,-0.192 Q 272.886,18.97 272.23,18.97 a 10.021,10.021 0 0 0 -1.556,0.115 q -0.883,0.139 -1.629,0.445 a 9.043,9.043 0 0 0 -1.694,0.907 7.896,7.896 0 0 0 -0.686,0.528 10.303,10.303 0 0 0 -1.345,1.391 9.167,9.167 0 0 0 -0.37,0.499 15.301,15.301 0 0 0 -0.628,0.985 11.206,11.206 0 0 0 -0.492,0.94 h -0.63 v -5.11 q 0.56,-0.07 1.05,-0.35 a 7.5,7.5 0 0 1 0.464,-0.243 q 0.247,-0.119 0.532,-0.238 a 13.79,13.79 0 0 1 0.194,-0.079 46.869,46.869 0 0 0 0.573,-0.234 q 0.641,-0.266 1.486,-0.635 a 166.707,166.707 0 0 0 0.811,-0.356 q 1.744,-0.771 4.838,-0.804 a 26.151,26.151 0 0 1 0.272,-0.001 24.745,24.745 0 0 1 2.473,0.116 q 2.195,0.221 3.757,0.864 a 11.102,11.102 0 0 1 1.815,0.939 q 1.111,0.72 1.86,1.651 1.295,1.61 1.715,3.675 0.42,2.065 0.42,4.235 v 13.86 q 0,1.4 0.63,2.625 a 3.147,3.147 0 0 0 0.364,0.564 q 0.545,0.661 1.316,0.661 z M 81.2,19.6 h -7.84 v 16.87 q 0,1.82 0.07,3.29 a 15.402,15.402 0 0 0 0.082,1.031 q 0.093,0.806 0.268,1.419 0.229,0.803 0.647,1.3 a 2.352,2.352 0 0 0 0.193,0.205 1.862,1.862 0 0 0 0.826,0.442 q 0.283,0.073 0.617,0.082 a 3.545,3.545 0 0 0 0.097,0.001 3.203,3.203 0 0 0 1.705,-0.507 q 0.459,-0.283 0.898,-0.724 a 6.449,6.449 0 0 0 0.162,-0.169 q 1.295,-1.4 1.645,-3.36 h 0.63 v 5.11 a 1.552,1.552 0 0 0 -0.553,0.095 1.395,1.395 0 0 0 -0.497,0.325 5.82,5.82 0 0 1 -0.439,0.345 q -0.235,0.169 -0.519,0.345 a 14.03,14.03 0 0 1 -0.617,0.36 q -0.919,0.507 -2.67,0.555 A 13.701,13.701 0 0 1 75.53,46.62 q -2.52,0 -3.92,-0.98 -1.4,-0.98 -2.03,-2.59 A 10.753,10.753 0 0 1 68.962,40.673 13.171,13.171 0 0 1 68.845,39.48 Q 68.74,37.52 68.74,35.49 V 19.6 h -3.92 v -2.38 h 3.92 V 10.99 A 7.909,7.909 0 0 0 68.617,9.571 6.701,6.701 0 0 0 68.425,8.785 1.307,1.307 0 0 0 67.719,7.99 Q 67.223,7.742 66.411,7.702 A 6.018,6.018 0 0 0 66.36,7.7 V 7 l 7,-2.24 v 12.46 h 7.84 z m 77.49,0 h -7.84 v 16.87 q 0,1.82 0.07,3.29 a 15.402,15.402 0 0 0 0.082,1.031 q 0.093,0.806 0.268,1.419 0.229,0.803 0.647,1.3 a 2.352,2.352 0 0 0 0.193,0.205 1.862,1.862 0 0 0 0.826,0.442 q 0.283,0.073 0.617,0.082 a 3.545,3.545 0 0 0 0.097,0.001 3.203,3.203 0 0 0 1.705,-0.507 q 0.459,-0.283 0.898,-0.724 a 6.449,6.449 0 0 0 0.162,-0.169 q 1.295,-1.4 1.645,-3.36 h 0.63 v 5.11 a 1.552,1.552 0 0 0 -0.553,0.095 1.395,1.395 0 0 0 -0.497,0.325 5.82,5.82 0 0 1 -0.439,0.345 q -0.235,0.169 -0.519,0.345 a 14.03,14.03 0 0 1 -0.617,0.36 q -0.919,0.507 -2.67,0.555 a 13.701,13.701 0 0 1 -0.375,0.005 q -2.52,0 -3.92,-0.98 -1.4,-0.98 -2.03,-2.59 a 10.753,10.753 0 0 1 -0.618,-2.377 13.171,13.171 0 0 1 -0.117,-1.193 Q 146.23,37.52 146.23,35.49 V 19.6 h -3.92 v -2.38 h 3.92 V 10.99 A 7.909,7.909 0 0 0 146.107,9.571 6.701,6.701 0 0 0 145.915,8.785 1.307,1.307 0 0 0 145.209,7.99 Q 144.713,7.742 143.901,7.702 A 6.018,6.018 0 0 0 143.85,7.7 V 7 l 7,-2.24 v 12.46 h 7.84 z m 259.77,0 h -7.84 v 16.87 q 0,1.82 0.07,3.29 a 15.402,15.402 0 0 0 0.082,1.031 q 0.093,0.806 0.268,1.419 0.229,0.803 0.647,1.3 a 2.352,2.352 0 0 0 0.193,0.205 1.862,1.862 0 0 0 0.826,0.442 q 0.283,0.073 0.617,0.082 a 3.545,3.545 0 0 0 0.097,0.001 3.203,3.203 0 0 0 1.705,-0.507 q 0.459,-0.283 0.898,-0.724 a 6.449,6.449 0 0 0 0.162,-0.169 q 1.295,-1.4 1.645,-3.36 h 0.63 v 5.11 a 1.552,1.552 0 0 0 -0.553,0.095 1.395,1.395 0 0 0 -0.497,0.325 5.82,5.82 0 0 1 -0.439,0.345 q -0.235,0.169 -0.519,0.345 a 14.03,14.03 0 0 1 -0.617,0.36 q -0.919,0.507 -2.67,0.555 a 13.701,13.701 0 0 1 -0.375,0.005 q -2.52,0 -3.92,-0.98 -1.4,-0.98 -2.03,-2.59 a 10.753,10.753 0 0 1 -0.618,-2.377 13.171,13.171 0 0 1 -0.117,-1.193 Q 406,37.52 406,35.49 V 19.6 h -3.92 V 17.22 H 406 V 10.99 A 7.909,7.909 0 0 0 405.877,9.571 6.701,6.701 0 0 0 405.685,8.785 1.307,1.307 0 0 0 404.979,7.99 Q 404.483,7.742 403.671,7.702 A 6.018,6.018 0 0 0 403.62,7.7 V 7 l 7,-2.24 v 12.46 h 7.84 z M 205.38,46.62 h -9.17 v -0.7 q 0.56,0 0.98,-0.42 a 4.4,4.4 0 0 0 0.634,-0.808 5.027,5.027 0 0 0 0.101,-0.172 4.268,4.268 0 0 0 0.446,-1.184 4.77,4.77 0 0 0 0.009,-0.041 q 0.14,-0.665 0.14,-1.225 V 6.23 A 7.206,7.206 0 0 0 198.306,4.456 6.569,6.569 0 0 0 198.17,3.99 q -0.35,-1.05 -2.1,-1.12 V 2.17 L 203.14,0 v 42.07 a 5.216,5.216 0 0 0 0.04,0.625 6.983,6.983 0 0 0 0.1,0.6 4.301,4.301 0 0 0 0.416,1.155 4.052,4.052 0 0 0 0.039,0.07 q 0.315,0.56 0.7,0.98 a 1.286,1.286 0 0 0 0.451,0.325 1.263,1.263 0 0 0 0.494,0.095 z m 136.269,0.164 a 18.273,18.273 0 0 0 3.521,0.326 q 3.85,0 6.755,-1.33 2.905,-1.33 4.9,-3.5 1.995,-2.17 3.01,-5.005 1.015,-2.835 1.015,-5.845 a 17.587,17.587 0 0 0 -0.054,-1.384 14.754,14.754 0 0 0 -1.066,-4.531 q -1.12,-2.695 -3.15,-4.655 a 13.64,13.64 0 0 0 -0.788,-0.704 14.545,14.545 0 0 0 -4.042,-2.341 q -2.8,-1.085 -6.16,-1.085 a 19.439,19.439 0 0 0 -1.141,0.033 16.586,16.586 0 0 0 -5.089,1.087 q -2.87,1.12 -4.97,3.15 -2.1,2.03 -3.29,4.865 a 14.66,14.66 0 0 0 -0.748,2.306 17.166,17.166 0 0 0 -0.442,3.959 18.338,18.338 0 0 0 0.038,1.19 15.534,15.534 0 0 0 1.047,4.76 q 1.085,2.73 3.08,4.725 a 13.705,13.705 0 0 0 1.048,0.945 14.916,14.916 0 0 0 3.747,2.205 14.675,14.675 0 0 0 2.779,0.829 z M 344.75,19.04 a 11.165,11.165 0 0 0 -2.51,0.415 9.123,9.123 0 0 0 -1.935,0.81 q -1.925,1.085 -3.22,2.8 a 12.411,12.411 0 0 0 -1.939,3.817 13.96,13.96 0 0 0 -0.021,0.068 q -0.665,2.17 -0.665,4.41 0,2.59 0.805,5.005 a 13.909,13.909 0 0 0 2.287,4.275 13.338,13.338 0 0 0 0.023,0.03 q 1.505,1.89 3.605,3.01 a 9.607,9.607 0 0 0 3.971,1.098 11.526,11.526 0 0 0 0.719,0.022 10.187,10.187 0 0 0 2.566,-0.311 8.429,8.429 0 0 0 2.019,-0.809 q 1.995,-1.12 3.325,-2.905 1.33,-1.785 1.995,-4.025 0.665,-2.24 0.665,-4.48 0,-2.31 -0.7,-4.655 -0.7,-2.345 -2.17,-4.27 -1.47,-1.925 -3.675,-3.115 -2.205,-1.19 -5.145,-1.19 z m -43.33,8.33 v 8.68 a 9.177,9.177 0 0 0 0.23,2.095 7.561,7.561 0 0 0 0.54,1.545 8.606,8.606 0 0 0 1.723,2.442 8.189,8.189 0 0 0 0.307,0.288 q 1.26,1.12 2.835,1.715 a 9.156,9.156 0 0 0 2.149,0.537 8.108,8.108 0 0 0 0.966,0.058 q 2.52,-0.14 4.34,-1.225 1.82,-1.085 3.045,-2.765 a 11.687,11.687 0 0 0 1.733,-3.517 13.307,13.307 0 0 0 0.087,-0.298 q 0.595,-2.135 0.595,-4.375 0,-2.52 -0.7,-4.9 a 14.124,14.124 0 0 0 -1.694,-3.729 13.185,13.185 0 0 0 -0.371,-0.541 q -1.365,-1.89 -3.395,-3.045 a 8.872,8.872 0 0 0 -3.63,-1.111 10.932,10.932 0 0 0 -0.99,-0.044 6.61,6.61 0 0 0 -2.826,0.644 7.588,7.588 0 0 0 -0.044,0.021 q -1.4,0.665 -2.485,1.75 a 8.353,8.353 0 0 0 -1.619,2.306 9.598,9.598 0 0 0 -0.131,0.284 Q 301.42,25.69 301.42,27.37 Z M 36.4,29.96 H 56.35 Q 56.28,27.93 55.615,25.97 A 12.089,12.089 0 0 0 54.054,22.868 11.291,11.291 0 0 0 53.76,22.47 8.957,8.957 0 0 0 50.778,20 10.251,10.251 0 0 0 50.75,19.985 8.338,8.338 0 0 0 48.052,19.142 10.736,10.736 0 0 0 46.55,19.04 10.287,10.287 0 0 0 44.466,19.241 7.664,7.664 0 0 0 42.315,20.02 Q 40.53,21 39.27,22.54 q -1.26,1.54 -1.96,3.5 A 17.061,17.061 0 0 0 36.414,29.838 15.975,15.975 0 0 0 36.4,29.96 Z m 145.25,10.85 0.77,-0.84 V 29.96 l -0.7,0.14 q -1.68,0.42 -4.095,1.12 -2.415,0.7 -4.585,1.82 a 15.802,15.802 0 0 0 -2.466,1.564 13.365,13.365 0 0 0 -1.244,1.096 5.419,5.419 0 0 0 -1.092,1.524 4.749,4.749 0 0 0 -0.448,2.046 4.507,4.507 0 0 0 1.469,3.403 5.923,5.923 0 0 0 0.351,0.307 q 1.82,1.47 4.76,1.47 a 8.924,8.924 0 0 0 2.17,-0.254 7.251,7.251 0 0 0 1.89,-0.761 13.39,13.39 0 0 0 2.836,-2.22 15.299,15.299 0 0 0 0.384,-0.405 z m 98.56,0 0.77,-0.84 V 29.96 l -0.7,0.14 q -1.68,0.42 -4.095,1.12 -2.415,0.7 -4.585,1.82 a 15.802,15.802 0 0 0 -2.466,1.564 13.365,13.365 0 0 0 -1.244,1.096 5.419,5.419 0 0 0 -1.092,1.524 4.749,4.749 0 0 0 -0.448,2.046 4.507,4.507 0 0 0 1.469,3.403 5.923,5.923 0 0 0 0.351,0.307 q 1.82,1.47 4.76,1.47 a 8.924,8.924 0 0 0 2.17,-0.254 7.251,7.251 0 0 0 1.89,-0.761 13.39,13.39 0 0 0 2.836,-2.22 15.299,15.299 0 0 0 0.384,-0.405 z M 86.8,17.22 V 0.14 h 3.5 v 17.08 z"
         id="path1748" />
    </g>
  </g>
  <g
     style="display:inline"
     transform="translate(0,-130.31247)"
     id="layer1">
    <g
       transform="matrix(0.26458333,0,0,0.26458333,5.5523087,176.55472)"
       id="svgGroup"
       font-size="9pt"
       style="font-size:12px;fill:#001b2e;fill-rule:evenodd;stroke:#001b2e;stroke-width:0.25000001mm;stroke-linecap:round">
      <path
         style="vector-effect:non-scaling-stroke"
         d="m 410.256,73.926 h -42.069 l 30.414,-42.735 h -18.204 a 7.942,7.942 0 0 0 -2.333,0.335 7.136,7.136 0 0 0 -1.108,0.442 8.549,8.549 0 0 0 -2.032,1.398 7.811,7.811 0 0 0 -0.577,0.6 9.495,9.495 0 0 0 -1.3,1.925 8.592,8.592 0 0 0 -0.309,0.684 8.348,8.348 0 0 0 -0.398,1.264 6.115,6.115 0 0 0 -0.157,1.344 h -1.11 V 27.306 h 39.183 L 379.842,69.93 h 20.646 q 2.442,0 4.107,-0.777 a 9.481,9.481 0 0 0 1.555,-0.905 7.469,7.469 0 0 0 1.164,-1.038 q 1.055,-1.165 1.499,-2.608 0.444,-1.443 0.444,-2.664 h 0.999 z M 71.151,45.288 v 21.423 a 8.271,8.271 0 0 0 0.063,0.99 11.073,11.073 0 0 0 0.159,0.952 6.82,6.82 0 0 0 0.66,1.831 6.424,6.424 0 0 0 0.062,0.112 8.925,8.925 0 0 0 0.667,1.023 7.466,7.466 0 0 0 0.443,0.531 2.039,2.039 0 0 0 0.715,0.515 2.003,2.003 0 0 0 0.783,0.151 v 1.11 H 60.384 v -1.11 a 1.827,1.827 0 0 0 1.016,-0.315 2.681,2.681 0 0 0 0.427,-0.351 6.977,6.977 0 0 0 1.005,-1.282 7.972,7.972 0 0 0 0.161,-0.272 6.767,6.767 0 0 0 0.707,-1.877 7.555,7.555 0 0 0 0.014,-0.066 q 0.222,-1.054 0.222,-1.942 V 46.065 q 0,-3.859 -1.035,-6.787 a 14.85,14.85 0 0 0 -0.075,-0.206 16.286,16.286 0 0 0 -1.375,-2.864 12.942,12.942 0 0 0 -1.622,-2.131 12.138,12.138 0 0 0 -3.094,-2.394 11.25,11.25 0 0 0 -1.179,-0.547 q -2.387,-0.944 -4.829,-0.944 a 12.362,12.362 0 0 0 -4.67,0.934 14.108,14.108 0 0 0 -0.158,0.065 15.387,15.387 0 0 0 -3.841,2.288 14.432,14.432 0 0 0 -0.378,0.32 q -1.831,1.61 -2.996,3.775 a 9.476,9.476 0 0 0 -1.132,3.699 9.183,9.183 0 0 0 -0.034,0.796 v 24.642 a 8.271,8.271 0 0 0 0.063,0.99 11.073,11.073 0 0 0 0.159,0.952 6.82,6.82 0 0 0 0.66,1.831 6.424,6.424 0 0 0 0.062,0.112 8.925,8.925 0 0 0 0.667,1.023 7.466,7.466 0 0 0 0.443,0.531 2.039,2.039 0 0 0 0.715,0.515 2.003,2.003 0 0 0 0.783,0.151 v 1.11 H 26.64 v -1.11 a 1.827,1.827 0 0 0 1.016,-0.315 2.681,2.681 0 0 0 0.427,-0.351 6.977,6.977 0 0 0 1.005,-1.282 7.972,7.972 0 0 0 0.161,-0.272 6.767,6.767 0 0 0 0.707,-1.877 7.555,7.555 0 0 0 0.014,-0.066 q 0.222,-1.054 0.222,-1.942 V 36.075 q 0,-1.887 -0.555,-3.607 A 2.347,2.347 0 0 0 28.22,30.986 q -0.456,-0.191 -1.046,-0.28 a 7.041,7.041 0 0 0 -0.756,-0.07 v -0.999 l 11.1,-3.552 v 6.105 q 0.633,-0.723 1.56,-1.557 a 29.334,29.334 0 0 1 0.438,-0.386 14.788,14.788 0 0 1 1.438,-1.089 19.867,19.867 0 0 1 1.504,-0.908 15.923,15.923 0 0 1 2.079,-0.945 21.006,21.006 0 0 1 1.916,-0.61 q 1.956,-0.524 4.526,-0.598 a 29.898,29.898 0 0 1 0.858,-0.012 25.64,25.64 0 0 1 3.982,0.293 q 2.723,0.429 4.898,1.483 3.663,1.776 5.994,4.607 2.331,2.83 3.385,6.216 a 23.197,23.197 0 0 1 0.952,4.576 20.223,20.223 0 0 1 0.103,2.028 z m 181.929,0 v 21.423 a 8.271,8.271 0 0 0 0.063,0.99 11.073,11.073 0 0 0 0.159,0.952 6.82,6.82 0 0 0 0.66,1.831 6.424,6.424 0 0 0 0.062,0.112 8.925,8.925 0 0 0 0.667,1.023 7.466,7.466 0 0 0 0.443,0.531 2.039,2.039 0 0 0 0.715,0.515 2.003,2.003 0 0 0 0.783,0.151 v 1.11 h -14.319 v -1.11 a 1.827,1.827 0 0 0 1.016,-0.315 2.681,2.681 0 0 0 0.427,-0.351 6.977,6.977 0 0 0 1.005,-1.282 7.972,7.972 0 0 0 0.161,-0.272 6.767,6.767 0 0 0 0.707,-1.877 7.555,7.555 0 0 0 0.014,-0.066 q 0.222,-1.054 0.222,-1.942 V 46.065 q 0,-3.859 -1.035,-6.787 a 14.85,14.85 0 0 0 -0.075,-0.206 16.286,16.286 0 0 0 -1.375,-2.864 12.942,12.942 0 0 0 -1.622,-2.131 12.138,12.138 0 0 0 -3.094,-2.394 11.25,11.25 0 0 0 -1.179,-0.547 q -2.387,-0.944 -4.829,-0.944 a 12.362,12.362 0 0 0 -4.67,0.934 14.108,14.108 0 0 0 -0.158,0.065 15.387,15.387 0 0 0 -3.841,2.288 14.432,14.432 0 0 0 -0.378,0.32 q -1.831,1.61 -2.996,3.775 a 9.476,9.476 0 0 0 -1.132,3.699 9.183,9.183 0 0 0 -0.034,0.796 v 24.642 a 8.271,8.271 0 0 0 0.063,0.99 11.073,11.073 0 0 0 0.159,0.952 6.82,6.82 0 0 0 0.66,1.831 6.424,6.424 0 0 0 0.062,0.112 8.925,8.925 0 0 0 0.667,1.023 7.466,7.466 0 0 0 0.443,0.531 2.039,2.039 0 0 0 0.715,0.515 2.003,2.003 0 0 0 0.783,0.151 v 1.11 h -14.43 v -1.11 a 1.827,1.827 0 0 0 1.016,-0.315 2.681,2.681 0 0 0 0.427,-0.351 6.977,6.977 0 0 0 1.005,-1.282 7.972,7.972 0 0 0 0.161,-0.272 6.767,6.767 0 0 0 0.707,-1.877 7.555,7.555 0 0 0 0.014,-0.066 q 0.222,-1.054 0.222,-1.942 V 36.075 q 0,-1.887 -0.555,-3.607 a 2.347,2.347 0 0 0 -1.417,-1.482 q -0.456,-0.191 -1.046,-0.28 a 7.041,7.041 0 0 0 -0.756,-0.07 v -0.999 l 11.1,-3.552 v 6.105 q 0.633,-0.723 1.56,-1.557 a 29.334,29.334 0 0 1 0.438,-0.386 14.788,14.788 0 0 1 1.438,-1.089 19.867,19.867 0 0 1 1.504,-0.908 15.923,15.923 0 0 1 2.079,-0.945 21.006,21.006 0 0 1 1.916,-0.61 q 1.956,-0.524 4.526,-0.598 a 29.898,29.898 0 0 1 0.858,-0.012 25.64,25.64 0 0 1 3.982,0.293 q 2.723,0.429 4.898,1.483 3.663,1.776 5.994,4.607 2.331,2.83 3.386,6.216 a 23.197,23.197 0 0 1 0.951,4.576 20.223,20.223 0 0 1 0.103,2.028 z m 266.289,28.638 h -10.878 v -4.884 q -1.887,2.109 -5.05,3.885 a 13.053,13.053 0 0 1 -3.535,1.325 q -1.997,0.451 -4.402,0.451 a 28.458,28.458 0 0 1 -5.105,-0.436 20.994,20.994 0 0 1 -5.163,-1.617 22.767,22.767 0 0 1 -5.002,-3.155 19.992,19.992 0 0 1 -2.268,-2.229 q -2.886,-3.33 -4.273,-7.603 -1.388,-4.274 -1.388,-8.825 0,-4.44 1.443,-8.824 1.443,-4.385 4.329,-7.826 a 21.393,21.393 0 0 1 6.416,-5.143 24.839,24.839 0 0 1 0.799,-0.407 20.642,20.642 0 0 1 6.093,-1.837 26.918,26.918 0 0 1 3.897,-0.272 q 3.774,0 7.437,1.388 a 19.341,19.341 0 0 1 2.72,1.264 q 1.462,0.833 2.563,1.859 a 11.332,11.332 0 0 1 0.489,0.484 V 9.879 a 11.427,11.427 0 0 0 -0.339,-2.813 10.417,10.417 0 0 0 -0.216,-0.739 q -0.458,-1.374 -2.353,-1.69 A 7.076,7.076 0 0 0 504.717,4.551 V 3.441 L 515.817,0 v 66.711 a 8.271,8.271 0 0 0 0.063,0.99 11.073,11.073 0 0 0 0.159,0.952 8.267,8.267 0 0 0 0.458,1.489 7.372,7.372 0 0 0 0.208,0.454 5.932,5.932 0 0 0 1.089,1.533 5.651,5.651 0 0 0 0.021,0.021 2.321,2.321 0 0 0 0.685,0.484 2.086,2.086 0 0 0 0.869,0.182 z M 161.838,51.504 h -38.517 q 0.444,3.885 1.887,7.382 1.443,3.496 3.83,6.16 a 17.804,17.804 0 0 0 5.507,4.12 20.398,20.398 0 0 0 0.32,0.153 16.732,16.732 0 0 0 4.478,1.344 22.311,22.311 0 0 0 3.514,0.266 18.6,18.6 0 0 0 3.161,-0.282 23.131,23.131 0 0 0 2,-0.439 q 2.72,-0.722 5.051,-2.054 2.331,-1.332 4.163,-3.274 a 10.378,10.378 0 0 0 2.247,-3.597 10.06,10.06 0 0 0 0.25,-0.788 h 0.999 v 8.325 a 2.409,2.409 0 0 0 -0.603,0.082 q -0.263,0.068 -0.547,0.192 a 5.031,5.031 0 0 0 -0.349,0.17 33.322,33.322 0 0 0 -0.663,0.364 q -0.585,0.33 -1.279,0.746 a 26.758,26.758 0 0 1 -1.71,0.935 q -0.904,0.456 -1.975,0.93 a 65.208,65.208 0 0 1 -2.309,0.966 q -2.722,1.08 -6.714,1.382 a 43.617,43.617 0 0 1 -3.276,0.116 31.012,31.012 0 0 1 -8.927,-1.268 29.229,29.229 0 0 1 -0.563,-0.175 q -4.496,-1.443 -7.937,-4.44 a 20.512,20.512 0 0 1 -4.381,-5.432 24.988,24.988 0 0 1 -1.113,-2.227 23.126,23.126 0 0 1 -1.572,-5.28 q -0.482,-2.702 -0.482,-5.82 a 26.023,26.023 0 0 1 0.988,-7.01 29.888,29.888 0 0 1 0.4,-1.315 q 1.387,-4.218 4.218,-7.603 a 20.284,20.284 0 0 1 5.277,-4.436 24.634,24.634 0 0 1 1.993,-1.059 q 4.176,-1.983 9.922,-2.102 a 35.72,35.72 0 0 1 0.734,-0.007 q 5.55,0 9.713,1.887 a 19.058,19.058 0 0 1 5.623,3.829 18.009,18.009 0 0 1 1.258,1.388 21.379,21.379 0 0 1 3.403,5.948 25.495,25.495 0 0 1 0.649,1.933 32.828,32.828 0 0 1 1.145,6.036 40.615,40.615 0 0 1 0.187,3.954 z m 302.142,0 h -38.517 q 0.444,3.885 1.887,7.382 1.443,3.496 3.83,6.16 a 17.804,17.804 0 0 0 5.507,4.12 20.398,20.398 0 0 0 0.32,0.153 16.732,16.732 0 0 0 4.478,1.344 22.311,22.311 0 0 0 3.514,0.266 18.6,18.6 0 0 0 3.161,-0.282 23.131,23.131 0 0 0 2,-0.439 q 2.72,-0.722 5.051,-2.054 2.331,-1.332 4.163,-3.274 a 10.378,10.378 0 0 0 2.247,-3.597 10.06,10.06 0 0 0 0.25,-0.788 h 0.999 v 8.325 a 2.409,2.409 0 0 0 -0.603,0.082 q -0.263,0.068 -0.547,0.192 a 5.031,5.031 0 0 0 -0.349,0.17 33.322,33.322 0 0 0 -0.663,0.364 q -0.585,0.33 -1.279,0.746 a 26.758,26.758 0 0 1 -1.71,0.935 q -0.904,0.456 -1.975,0.93 a 65.208,65.208 0 0 1 -2.309,0.966 q -2.722,1.08 -6.714,1.382 a 43.617,43.617 0 0 1 -3.276,0.116 31.012,31.012 0 0 1 -8.927,-1.268 29.229,29.229 0 0 1 -0.563,-0.175 q -4.496,-1.443 -7.937,-4.44 a 20.512,20.512 0 0 1 -4.381,-5.432 24.988,24.988 0 0 1 -1.113,-2.227 23.126,23.126 0 0 1 -1.572,-5.28 q -0.482,-2.702 -0.482,-5.82 a 26.023,26.023 0 0 1 0.988,-7.01 29.888,29.888 0 0 1 0.4,-1.315 q 1.387,-4.218 4.218,-7.603 a 20.284,20.284 0 0 1 5.277,-4.436 24.634,24.634 0 0 1 1.993,-1.059 q 4.176,-1.983 9.922,-2.102 a 35.72,35.72 0 0 1 0.734,-0.007 q 5.55,0 9.713,1.887 a 19.058,19.058 0 0 1 5.623,3.829 18.009,18.009 0 0 1 1.258,1.388 21.379,21.379 0 0 1 3.403,5.948 25.495,25.495 0 0 1 0.649,1.933 32.828,32.828 0 0 1 1.145,6.036 40.615,40.615 0 0 1 0.187,3.954 z M 307.581,73.926 h -10.767 v -5.661 l -0.555,0.555 q -2.775,2.775 -6.383,4.329 -3.258,1.404 -7.74,1.539 a 32.157,32.157 0 0 1 -0.973,0.015 28.51,28.51 0 0 1 -2.973,-0.147 q -1.498,-0.157 -2.784,-0.483 a 15.299,15.299 0 0 1 -0.903,-0.258 14.484,14.484 0 0 1 -2.346,-0.972 10.686,10.686 0 0 1 -2.205,-1.525 q -1.776,-1.61 -2.608,-3.719 -0.833,-2.109 -0.833,-4.44 a 11.745,11.745 0 0 1 0.743,-4.219 10.886,10.886 0 0 1 1.31,-2.441 15.408,15.408 0 0 1 2.652,-2.839 q 1.436,-1.209 3.287,-2.267 a 40.626,40.626 0 0 1 3.729,-1.868 q 2.608,-1.153 5.762,-2.184 a 149.937,149.937 0 0 1 5.608,-1.704 q 2.957,-0.84 6.261,-1.667 a 246.559,246.559 0 0 1 0.951,-0.236 21.752,21.752 0 0 0 -0.332,-2.896 q -0.448,-2.39 -1.444,-4.097 a 15.151,15.151 0 0 0 -1.636,-2.307 11.542,11.542 0 0 0 -2.027,-1.856 12.435,12.435 0 0 0 -3.005,-1.588 11.177,11.177 0 0 0 -1.435,-0.409 27.123,27.123 0 0 0 -1.655,-0.305 q -0.802,-0.12 -1.506,-0.166 a 12.79,12.79 0 0 0 -0.835,-0.029 15.89,15.89 0 0 0 -2.467,0.182 q -1.394,0.22 -2.574,0.702 a 9.864,9.864 0 0 0 -0.009,0.004 14.339,14.339 0 0 0 -2.686,1.438 12.521,12.521 0 0 0 -1.089,0.837 16.337,16.337 0 0 0 -2.133,2.207 14.537,14.537 0 0 0 -0.586,0.791 24.264,24.264 0 0 0 -0.996,1.561 17.77,17.77 0 0 0 -0.78,1.491 h -0.999 v -8.103 q 0.888,-0.111 1.665,-0.555 0.667,-0.381 1.579,-0.762 a 21.867,21.867 0 0 1 0.308,-0.126 74.315,74.315 0 0 0 0.909,-0.371 q 1.478,-0.614 3.642,-1.571 a 12.362,12.362 0 0 1 2.26,-0.727 q 2.266,-0.515 5.412,-0.548 a 41.47,41.47 0 0 1 0.431,-0.002 q 4.29,0 7.428,0.767 a 17.096,17.096 0 0 1 2.451,0.787 q 3.638,1.498 5.677,3.924 a 10.972,10.972 0 0 1 0.15,0.183 q 2.054,2.553 2.72,5.828 0.666,3.274 0.666,6.715 v 21.978 q 0,2.22 0.999,4.163 a 4.99,4.99 0 0 0 0.578,0.894 q 0.863,1.048 2.086,1.048 z M 108.891,31.08 H 96.459 v 26.751 a 129.392,129.392 0 0 0 0.028,2.747 94.143,94.143 0 0 0 0.083,2.47 24.424,24.424 0 0 0 0.13,1.635 q 0.089,0.778 0.228,1.444 a 11.342,11.342 0 0 0 0.197,0.806 6.868,6.868 0 0 0 0.395,1.064 q 0.272,0.57 0.631,0.998 a 3.73,3.73 0 0 0 0.306,0.324 2.952,2.952 0 0 0 1.309,0.701 q 0.514,0.132 1.133,0.132 a 5.079,5.079 0 0 0 2.704,-0.803 q 0.728,-0.449 1.424,-1.149 a 10.225,10.225 0 0 0 0.256,-0.268 q 2.054,-2.22 2.609,-5.328 h 0.999 v 8.103 a 2.462,2.462 0 0 0 -0.877,0.151 2.212,2.212 0 0 0 -0.788,0.515 q -0.597,0.522 -1.519,1.094 a 22.248,22.248 0 0 1 -0.979,0.571 5.733,5.733 0 0 1 -1.229,0.487 q -1.234,0.345 -3.005,0.393 A 21.726,21.726 0 0 1 99.9,73.926 q -2.665,0 -4.54,-0.691 A 7.322,7.322 0 0 1 93.684,72.372 Q 91.464,70.818 90.465,68.265 89.466,65.712 89.3,62.604 89.133,59.496 89.133,56.277 V 31.08 h -6.216 v -3.774 h 6.216 v -9.879 a 12.541,12.541 0 0 0 -0.195,-2.25 10.626,10.626 0 0 0 -0.304,-1.246 q -0.5,-1.61 -3.275,-1.721 V 11.1 l 11.1,-3.552 v 19.758 h 12.432 z M 0,1.776 v -1.11 h 15.873 v 1.11 h -0.555 a 1.969,1.969 0 0 0 -1.103,0.343 2.728,2.728 0 0 0 -0.34,0.267 q -0.666,0.611 -1.11,1.443 a 8.027,8.027 0 0 0 -0.49,1.128 10.013,10.013 0 0 0 -0.231,0.759 q -0.213,0.808 -0.263,1.453 a 4.932,4.932 0 0 0 -0.015,0.379 v 59.163 a 8.271,8.271 0 0 0 0.063,0.99 11.073,11.073 0 0 0 0.159,0.952 6.82,6.82 0 0 0 0.66,1.831 6.424,6.424 0 0 0 0.062,0.112 8.925,8.925 0 0 0 0.667,1.023 7.466,7.466 0 0 0 0.443,0.531 2.039,2.039 0 0 0 0.715,0.515 2.003,2.003 0 0 0 0.783,0.151 h 0.555 v 1.11 H 0 v -1.11 h 0.555 q 0.888,0 1.554,-0.61 0.666,-0.611 1.165,-1.554 0.5,-0.944 0.722,-1.998 0.222,-1.055 0.222,-1.943 V 7.548 Q 4.218,6.88 4.054,6.049 A 11.763,11.763 0 0 0 3.996,5.772 Q 3.774,4.773 3.274,3.885 A 6.458,6.458 0 0 0 2.604,2.906 5.411,5.411 0 0 0 2.109,2.386 Q 1.443,1.776 0.555,1.776 Z m 333.222,72.15 h -14.541 v -1.11 a 2.118,2.118 0 0 0 1.511,-0.624 2.782,2.782 0 0 0 0.043,-0.042 6.977,6.977 0 0 0 1.005,-1.282 7.972,7.972 0 0 0 0.161,-0.272 6.767,6.767 0 0 0 0.707,-1.877 7.555,7.555 0 0 0 0.014,-0.066 q 0.222,-1.054 0.222,-1.942 V 9.879 A 11.427,11.427 0 0 0 322.005,7.066 10.417,10.417 0 0 0 321.789,6.327 2.244,2.244 0 0 0 320.546,4.983 Q 320.104,4.775 319.521,4.665 A 7.339,7.339 0 0 0 318.459,4.551 V 3.441 L 329.67,0 v 66.711 a 8.271,8.271 0 0 0 0.063,0.99 11.073,11.073 0 0 0 0.159,0.952 6.82,6.82 0 0 0 0.66,1.831 6.424,6.424 0 0 0 0.062,0.112 8.925,8.925 0 0 0 0.667,1.023 7.466,7.466 0 0 0 0.443,0.531 2.039,2.039 0 0 0 0.715,0.515 2.003,2.003 0 0 0 0.783,0.151 z m -131.757,-45.288 -3.33,6.771 a 11.212,11.212 0 0 0 -0.758,-1.117 q -0.9,-1.157 -1.849,-1.587 a 3.089,3.089 0 0 0 -0.168,-0.071 8.089,8.089 0 0 0 -1.737,-0.445 11.005,11.005 0 0 0 -1.593,-0.11 q -1.221,0 -2.608,0.555 a 14.641,14.641 0 0 0 -2.386,1.226 16.384,16.384 0 0 0 -0.334,0.217 q -1.332,0.888 -2.608,1.943 a 39.026,39.026 0 0 0 -1.043,0.89 q -0.467,0.414 -0.865,0.799 a 21.446,21.446 0 0 0 -0.257,0.253 v 28.86 a 8.044,8.044 0 0 0 0.087,1.153 9.986,9.986 0 0 0 0.135,0.734 q 0.222,0.999 0.722,1.943 a 7.661,7.661 0 0 0 0.492,0.811 q 0.293,0.418 0.618,0.743 0.61,0.61 1.498,0.61 v 1.11 h -14.43 v -1.11 a 1.969,1.969 0 0 0 1.103,-0.343 2.728,2.728 0 0 0 0.34,-0.267 q 0.666,-0.611 1.166,-1.554 0.499,-0.944 0.721,-1.943 0.222,-0.999 0.222,-1.887 V 35.853 a 5.209,5.209 0 0 0 -0.428,-2.034 7.033,7.033 0 0 0 -0.571,-1.074 4.515,4.515 0 0 0 -2.857,-1.991 5.818,5.818 0 0 0 -0.029,-0.007 v -0.888 l 11.211,-3.33 v 6.66 q 0.999,-1.221 2.109,-2.386 1.11,-1.166 2.498,-2.109 a 13.891,13.891 0 0 1 2.948,-1.516 15.348,15.348 0 0 1 0.104,-0.038 q 1.615,-0.593 3.751,-0.61 a 15.961,15.961 0 0 1 0.134,-0.001 9.628,9.628 0 0 1 1.159,0.077 q 1.225,0.149 2.837,0.589 a 31.177,31.177 0 0 1 1.69,0.51 q 1.329,0.444 2.306,0.933 z m 158.397,45.288 h -14.43 v -1.11 a 2.118,2.118 0 0 0 1.511,-0.624 2.782,2.782 0 0 0 0.043,-0.042 q 0.666,-0.666 1.11,-1.554 a 7.828,7.828 0 0 0 0.575,-1.553 8.961,8.961 0 0 0 0.091,-0.389 q 0.222,-1.055 0.222,-1.943 V 35.964 q 0,-1.887 -0.555,-3.607 a 2.347,2.347 0 0 0 -1.417,-1.482 q -0.456,-0.191 -1.046,-0.28 a 7.041,7.041 0 0 0 -0.756,-0.07 v -0.999 l 11.1,-3.552 v 40.737 a 8.271,8.271 0 0 0 0.063,0.99 11.073,11.073 0 0 0 0.159,0.952 8.267,8.267 0 0 0 0.458,1.489 7.372,7.372 0 0 0 0.208,0.454 5.932,5.932 0 0 0 1.089,1.533 5.651,5.651 0 0 0 0.021,0.021 2.321,2.321 0 0 0 0.685,0.484 2.086,2.086 0 0 0 0.869,0.182 z M 508.491,59.052 V 43.845 a 12.501,12.501 0 0 0 -0.47,-3.476 10.959,10.959 0 0 0 -0.862,-2.129 15.377,15.377 0 0 0 -2.961,-3.935 14.552,14.552 0 0 0 -0.369,-0.339 q -1.998,-1.776 -4.384,-2.719 a 13.938,13.938 0 0 0 -2.489,-0.737 11.19,11.19 0 0 0 -2.118,-0.207 13.335,13.335 0 0 0 -4.076,0.607 11.846,11.846 0 0 0 -2.473,1.113 q -2.886,1.721 -4.884,4.441 -1.998,2.719 -2.997,6.105 -0.999,3.385 -0.999,6.715 0,3.885 1.11,7.715 a 23.061,23.061 0 0 0 2.624,5.909 21.444,21.444 0 0 0 0.65,0.973 q 2.165,3.052 5.273,5.05 a 13.271,13.271 0 0 0 5.588,1.986 16.499,16.499 0 0 0 1.627,0.123 q 2.331,0 4.551,-0.943 2.22,-0.944 3.885,-2.553 1.665,-1.61 2.719,-3.774 1.055,-2.165 1.055,-4.718 z M 123.321,47.508 h 31.635 q -0.111,-3.219 -1.165,-6.327 -1.055,-3.108 -2.942,-5.55 a 14.203,14.203 0 0 0 -4.728,-3.917 16.285,16.285 0 0 0 -0.045,-0.023 13.222,13.222 0 0 0 -4.279,-1.338 17.024,17.024 0 0 0 -2.381,-0.161 16.312,16.312 0 0 0 -3.304,0.319 12.153,12.153 0 0 0 -3.412,1.235 q -2.83,1.554 -4.828,3.996 -1.998,2.442 -3.108,5.55 a 27.055,27.055 0 0 0 -1.421,6.022 25.325,25.325 0 0 0 -0.022,0.194 z m 302.142,0 h 31.635 q -0.111,-3.219 -1.165,-6.327 -1.055,-3.108 -2.942,-5.55 a 14.203,14.203 0 0 0 -4.728,-3.917 16.285,16.285 0 0 0 -0.045,-0.023 13.222,13.222 0 0 0 -4.279,-1.338 17.024,17.024 0 0 0 -2.381,-0.161 16.312,16.312 0 0 0 -3.304,0.319 12.153,12.153 0 0 0 -3.412,1.235 q -2.83,1.554 -4.828,3.996 -1.998,2.442 -3.108,5.55 a 27.055,27.055 0 0 0 -1.421,6.022 25.325,25.325 0 0 0 -0.022,0.194 z m -129.87,17.205 1.221,-1.332 V 47.508 l -1.11,0.222 a 129.756,129.756 0 0 0 -2.162,0.562 q -1.938,0.52 -4.332,1.214 -3.829,1.11 -7.27,2.886 a 25.058,25.058 0 0 0 -3.911,2.48 21.192,21.192 0 0 0 -1.972,1.738 8.593,8.593 0 0 0 -1.732,2.416 7.531,7.531 0 0 0 -0.71,3.245 7.147,7.147 0 0 0 2.33,5.397 9.392,9.392 0 0 0 0.556,0.486 q 2.808,2.268 7.298,2.329 a 18.364,18.364 0 0 0 0.25,0.002 q 3.663,0 6.438,-1.609 a 21.233,21.233 0 0 0 4.498,-3.52 24.261,24.261 0 0 0 0.608,-0.643 z m 235.32,4.44 q 0,-2.22 1.499,-3.774 a 4.938,4.938 0 0 1 3.58,-1.552 6.248,6.248 0 0 1 0.138,-0.002 5.133,5.133 0 0 1 3.725,1.506 6.113,6.113 0 0 1 0.049,0.048 q 1.554,1.554 1.554,3.774 a 5.207,5.207 0 0 1 -0.426,2.126 5.021,5.021 0 0 1 -1.128,1.592 q -1.554,1.499 -3.774,1.499 a 5.408,5.408 0 0 1 -2.04,-0.375 5.008,5.008 0 0 1 -1.679,-1.123 q -1.498,-1.499 -1.498,-3.719 z M 345.987,15.318 q 0,-2.22 1.499,-3.774 a 4.938,4.938 0 0 1 3.58,-1.552 6.248,6.248 0 0 1 0.138,-0.002 5.133,5.133 0 0 1 3.725,1.506 6.113,6.113 0 0 1 0.049,0.048 q 1.554,1.554 1.554,3.774 0,2.22 -1.554,3.663 -1.554,1.443 -3.774,1.443 a 5.625,5.625 0 0 1 -1.967,-0.333 5.017,5.017 0 0 1 -1.751,-1.11 q -1.499,-1.443 -1.499,-3.663 z"
         id="path1775" />
    </g>
  </g>
</svg>
